<svg xmlns="http://www.w3.org/2000/svg" width="300" height="50" viewBox="0 0 300 50"><path fill="#18599B" d="M300 40c0 5.522-4.478 10-10 10H10C4.477 50 0 45.522 0 40V10C0 4.477 4.477 0 10 0h280c5.522 0 10 4.477 10 10v30z"/><path fill="#FFF" d="M279.35 9.374h-7.874l9.166 15.876-9.166 15.875h7.875l9.167-15.875z"/><g fill="#FFF"><path d="M90.52 19.07c0-.448-.158-.79-.473-1.03s-.884-.492-1.704-.757c-.82-.266-1.47-.527-1.948-.785-1.304-.705-1.957-1.654-1.957-2.848 0-.62.175-1.174.525-1.66.35-.487.852-.867 1.506-1.14.654-.274 1.39-.41 2.204-.41.82 0 1.55.147 2.193.444.642.298 1.14.717 1.495 1.258a3.3 3.3 0 0 1 .532 1.846h-2.367c0-.526-.165-.935-.497-1.227-.33-.29-.796-.437-1.396-.437-.58 0-1.028.122-1.35.367s-.48.566-.48.966c0 .374.188.686.564.94.376.25.93.488 1.66.708 1.346.405 2.327.907 2.942 1.507s.923 1.347.923 2.24c0 .995-.376 1.774-1.127 2.34-.752.565-1.765.847-3.037.847-.884 0-1.69-.162-2.415-.485-.726-.324-1.28-.767-1.66-1.33-.38-.562-.572-1.214-.572-1.956h2.374c0 1.268.757 1.9 2.272 1.9.56 0 1-.113 1.316-.342.316-.225.474-.544.474-.955zM103.188 10.598v7.564c0 1.257-.393 2.25-1.18 2.982-.786.73-1.86 1.096-3.222 1.096-1.34 0-2.406-.355-3.195-1.064-.788-.71-1.19-1.686-1.206-2.927v-7.652h2.366v7.58c0 .753.18 1.3.54 1.646.36.344.86.517 1.496.517 1.33 0 2.006-.698 2.027-2.097V10.6h2.375zM105.128 22.083V10.598h4.023c1.395 0 2.452.267 3.172.8.72.535 1.08 1.317 1.08 2.348 0 .563-.144 1.058-.433 1.487s-.692.743-1.208.943c.59.147 1.053.444 1.393.89.34.448.51.995.51 1.642 0 1.104-.354 1.94-1.058 2.508-.705.568-1.71.857-3.013.867h-4.466zm2.366-6.673h1.75c1.195-.02 1.792-.497 1.792-1.428 0-.52-.15-.896-.453-1.124-.303-.23-.78-.343-1.432-.343h-1.656v2.895zm0 1.672v3.1h2.027c.56 0 .994-.133 1.307-.398.313-.266.47-.633.47-1.1 0-1.053-.545-1.586-1.633-1.603h-2.17zM121.394 19.07c0-.448-.158-.79-.474-1.03-.315-.24-.884-.492-1.704-.757-.82-.266-1.47-.527-1.948-.785-1.304-.705-1.956-1.654-1.956-2.848 0-.62.175-1.174.524-1.66.35-.487.852-.867 1.506-1.14.655-.274 1.39-.41 2.205-.41.82 0 1.55.147 2.193.444.642.298 1.14.717 1.495 1.258a3.3 3.3 0 0 1 .532 1.846H121.4c0-.526-.164-.935-.496-1.227-.332-.29-.797-.437-1.396-.437-.58 0-1.028.122-1.35.367s-.48.566-.48.966c0 .374.188.686.564.94.375.25.93.488 1.66.708 1.346.405 2.327.907 2.942 1.507s.923 1.347.923 2.24c0 .995-.375 1.774-1.127 2.34-.752.565-1.764.847-3.037.847-.883 0-1.688-.162-2.414-.485-.726-.324-1.28-.767-1.66-1.33-.382-.562-.573-1.214-.573-1.956h2.374c0 1.268.76 1.9 2.273 1.9.562 0 1.002-.113 1.317-.342.316-.225.474-.544.474-.955zM134.385 18.257c-.09 1.236-.545 2.208-1.368 2.92-.823.708-1.908 1.063-3.254 1.063-1.472 0-2.63-.496-3.474-1.487-.845-.99-1.267-2.352-1.267-4.082v-.7c0-1.105.194-2.078.583-2.92.39-.84.945-1.486 1.668-1.936.723-.45 1.563-.674 2.52-.674 1.325 0 2.393.355 3.203 1.064.81.71 1.278 1.707 1.404 2.99h-2.366c-.058-.74-.264-1.28-.62-1.613s-.894-.5-1.62-.5c-.79 0-1.38.283-1.77.848-.393.566-.594 1.442-.605 2.63v.868c0 1.24.187 2.148.563 2.722.375.573.97.86 1.778.86.732 0 1.278-.168 1.638-.5s.566-.852.62-1.55h2.367zM140.19 17.878h-1.885v4.204h-2.366V10.598h4.267c1.357 0 2.403.302 3.14.907.735.605 1.103 1.46 1.103 2.564 0 .783-.17 1.436-.51 1.96-.338.522-.852.94-1.54 1.25l2.483 4.692v.11h-2.54l-2.153-4.204zm-1.885-1.917h1.91c.593 0 1.053-.15 1.38-.453.325-.302.488-.72.488-1.25 0-.542-.154-.968-.46-1.278-.31-.312-.78-.466-1.417-.466h-1.9v3.447zM148.765 22.083H146.4V10.598h2.365v11.485zM150.957 22.083V10.598h4.024c1.394 0 2.45.267 3.17.8s1.083 1.317 1.083 2.348a2.59 2.59 0 0 1-.435 1.487c-.288.43-.69.743-1.206.943.59.147 1.053.444 1.393.89.34.448.508.995.508 1.642 0 1.104-.352 1.94-1.057 2.508-.705.568-1.71.857-3.015.867h-4.463zm2.367-6.673h1.75c1.194-.02 1.792-.497 1.792-1.428 0-.52-.15-.896-.453-1.124-.304-.23-.78-.343-1.432-.343h-1.656v2.895zm0 1.672v3.1h2.027c.56 0 .994-.133 1.307-.398.313-.266.47-.633.47-1.1 0-1.053-.545-1.586-1.633-1.603h-2.17zM168.18 17.105h-4.546v3.076h5.332v1.902h-7.697V10.598h7.68v1.917h-5.315v2.737h4.545v1.853zM182.548 12.515h-3.517v9.568h-2.365v-9.568h-3.472v-1.917h9.354v1.917zM193.11 16.6c0 1.132-.2 2.123-.6 2.975s-.97 1.51-1.715 1.972c-.743.463-1.598.694-2.56.694-.952 0-1.802-.228-2.548-.685s-1.324-1.11-1.735-1.96c-.41-.85-.617-1.826-.622-2.93v-.57c0-1.13.203-2.125.61-2.985.407-.86.983-1.52 1.728-1.98.743-.46 1.594-.69 2.553-.69.956 0 1.808.23 2.553.69.743.46 1.318 1.12 1.726 1.98.407.86.61 1.853.61 2.978v.513zm-2.396-.52c0-1.204-.217-2.12-.646-2.745-.432-.626-1.047-.938-1.846-.938-.795 0-1.406.31-1.84.927-.43.618-.648 1.523-.653 2.717v.56c0 1.174.213 2.084.646 2.73.43.646 1.05.97 1.86.97.795 0 1.405-.312 1.83-.935.426-.623.642-1.532.647-2.725v-.56zM208.288 16.6c0 1.132-.2 2.123-.6 2.975-.4.852-.972 1.51-1.715 1.972-.746.463-1.598.694-2.562.694-.95 0-1.8-.228-2.547-.685-.746-.458-1.324-1.11-1.734-1.96-.412-.85-.62-1.826-.625-2.93v-.57c0-1.13.204-2.125.612-2.985.407-.86.982-1.52 1.728-1.98.743-.46 1.595-.69 2.55-.69.96 0 1.81.23 2.553.69.744.46 1.32 1.12 1.73 1.98.407.86.61 1.853.61 2.978v.513zm-2.4-.52c0-1.204-.213-2.12-.646-2.745-.43-.626-1.045-.938-1.846-.938-.792 0-1.406.31-1.836.927-.433.618-.65 1.523-.656 2.717v.56c0 1.174.217 2.084.646 2.73.434.646 1.054.97 1.862.97.794 0 1.404-.312 1.83-.935.427-.623.642-1.532.646-2.725v-.56zM218.7 10.598v7.564c0 1.257-.395 2.25-1.18 2.982-.786.73-1.86 1.096-3.223 1.096-1.34 0-2.406-.355-3.195-1.064-.787-.71-1.19-1.686-1.206-2.927v-7.652h2.366v7.58c0 .753.18 1.3.54 1.646.36.344.858.517 1.495.517 1.33 0 2.006-.698 2.027-2.097V10.6h2.376zM224.89 17.878h-1.883v4.204h-2.367V10.598h4.268c1.356 0 2.402.302 3.14.907.735.605 1.104 1.46 1.104 2.564 0 .783-.17 1.436-.51 1.96-.34.522-.852.94-1.54 1.25l2.482 4.692v.11h-2.54l-2.153-4.204zm-1.883-1.917h1.908c.594 0 1.055-.15 1.38-.453.327-.302.49-.72.49-1.25 0-.542-.154-.968-.462-1.278-.308-.312-.78-.466-1.416-.466h-1.9v3.447zM91.474 35.135H86.93v3.076h5.333v1.903h-7.7V28.627h7.684v1.918H86.93v2.737h4.543v1.853zM97.895 37.266l2.604-8.64h2.633l-4 11.487h-2.468l-3.983-11.486h2.627l2.585 8.64zM111.123 35.135h-4.543v3.076h5.332v1.903h-7.7V28.627h7.684v1.918h-5.316v2.737h4.543v1.853zM122.64 40.113h-2.366l-4.607-7.557v7.557H113.3V28.627h2.367l4.615 7.573v-7.573h2.358v11.486zM133.123 30.545h-3.518v9.568h-2.366v-9.568h-3.472v-1.918h9.355v1.918zM140.3 37.1c0-.447-.157-.79-.472-1.03-.315-.238-.884-.49-1.704-.757s-1.47-.527-1.948-.784c-1.304-.705-1.957-1.654-1.957-2.85 0-.62.174-1.174.524-1.66.35-.486.852-.867 1.506-1.14.655-.273 1.39-.41 2.205-.41.82 0 1.55.15 2.193.446s1.14.716 1.495 1.258a3.3 3.3 0 0 1 .532 1.846h-2.367c0-.525-.165-.935-.497-1.227-.33-.29-.795-.438-1.395-.438-.58 0-1.028.12-1.35.366s-.48.568-.48.967c0 .375.188.687.564.94.375.25.93.488 1.66.708 1.345.406 2.326.908 2.94 1.508.616.6.924 1.346.924 2.24 0 .994-.376 1.773-1.127 2.338-.752.567-1.765.85-3.037.85-.883 0-1.688-.162-2.414-.485-.726-.323-1.28-.767-1.66-1.33-.38-.562-.572-1.215-.572-1.955h2.374c0 1.268.757 1.9 2.272 1.9.562 0 1.002-.113 1.317-.342s.474-.548.474-.958zM157.64 40.113h-2.367l-4.607-7.557v7.557H148.3V28.627h2.365l4.615 7.573v-7.573h2.358v11.486zM166.616 35.135h-4.545v3.076h5.333v1.903h-7.697V28.627h7.682v1.918h-5.316v2.737h4.545v1.853zM177.737 36.8l1.545-8.173h2.36l-2.548 11.486h-2.384l-1.868-7.684-1.87 7.683h-2.382l-2.548-11.486h2.358l1.555 8.156 1.893-8.156h2.002l1.887 8.172zM188.875 37.1c0-.447-.158-.79-.474-1.03-.315-.238-.882-.49-1.702-.757s-1.47-.527-1.95-.784c-1.304-.705-1.955-1.654-1.955-2.85 0-.62.176-1.174.525-1.66.35-.486.85-.867 1.507-1.14.654-.273 1.39-.41 2.204-.41.82 0 1.55.15 2.193.446.64.297 1.14.716 1.494 1.258a3.3 3.3 0 0 1 .53 1.846h-2.364c0-.525-.167-.935-.498-1.227-.332-.29-.796-.438-1.395-.438-.58 0-1.03.12-1.35.366a1.16 1.16 0 0 0-.48.967c0 .375.186.687.562.94.375.25.93.488 1.66.708 1.348.406 2.328.908 2.943 1.508.615.6.922 1.346.922 2.24 0 .994-.375 1.773-1.128 2.338-.754.567-1.766.85-3.04.85-.88 0-1.687-.162-2.41-.485-.728-.323-1.28-.767-1.66-1.33-.382-.562-.573-1.215-.573-1.955h2.374c0 1.268.76 1.9 2.272 1.9.564 0 1.002-.113 1.318-.342.317-.228.475-.548.475-.958zM195.218 38.21h5.023v1.903h-7.39V28.627h2.367v9.584zM208.508 35.135h-4.544v3.076h5.334v1.903h-7.7V28.627h7.684v1.918h-5.317v2.737h4.544v1.853zM219.49 30.545h-3.52v9.568h-2.366v-9.568h-3.47v-1.918h9.354v1.918zM229.608 30.545h-3.52v9.568h-2.365v-9.568h-3.47v-1.918h9.354v1.918zM237.866 35.135h-4.543v3.076h5.333v1.903h-7.7V28.627h7.684v1.918h-5.316v2.737h4.543v1.853zM244.296 35.908h-1.885v4.205h-2.365V28.627h4.267c1.356 0 2.402.303 3.14.908.735.604 1.104 1.46 1.104 2.562 0 .783-.17 1.438-.51 1.96-.34.523-.852.94-1.54 1.25l2.483 4.694v.112h-2.542l-2.152-4.204zm-1.885-1.917h1.91c.594 0 1.054-.15 1.38-.452.326-.303.488-.72.488-1.25 0-.542-.152-.968-.46-1.278-.308-.31-.78-.465-1.417-.465h-1.9v3.446z"/></g><path fill="#F7BF0F" d="M68.02 36.39a3.872 3.872 0 0 1-3.872 3.874H18.054a3.873 3.873 0 0 1-3.874-3.873V13.667a3.874 3.874 0 0 1 3.874-3.873h46.094a3.873 3.873 0 0 1 3.873 3.873V36.39z"/><path fill="#F7BF0F" d="M12.097 14.853l.072-1.4c.216-4.177 3.566-5.56 5.307-5.71l.085-.006h46.97l.126.016c4.236.544 5.36 4.062 5.363 5.846l.003 1.328L41.1 27.135 12.096 14.853z"/><path fill="#1D5A99" d="M64.403 9.736c3.613.464 3.618 3.865 3.618 3.865L41.1 24.964 14.168 13.558c.184-3.54 3.48-3.82 3.48-3.82h46.756m.256-4.002H17.475l-.17.015c-2.72.232-6.867 2.448-7.134 7.6l-.145 2.8 2.58 1.092L39.54 28.647l1.558.66 1.558-.658 26.92-11.363 2.45-1.033-.005-2.658c-.003-2.78-1.9-7.158-7.108-7.827l-.253-.034z"/><text transform="translate(-26.334 -68.02)"><tspan x="0" y="0" fill="#FFF" font-family="'Roboto-Bold'" font-size="17.95">SUBSCRIBE TO OUR</tspan><tspan x="0" y="20.033" fill="#FFF" font-family="'Roboto-Bold'" font-size="17.95">EVENTS NEWSLETTER</tspan></text><text transform="translate(-64.927 -28.96)"><tspan x="0" y="0" font-family="'Roboto-Bold'" font-size="17.498">You’re</tspan><tspan x="-1.628" y="15.086" font-family="'Roboto-Bold'" font-size="17.498">Invited</tspan></text></svg>