<svg xmlns="http://www.w3.org/2000/svg" width="300" height="50" viewBox="0 0 300 50"><path fill="#18599B" d="M300 40c0 5.522-4.478 10-10 10H10C4.477 50 0 45.522 0 40V10C0 4.477 4.477 0 10 0h280c5.522 0 10 4.477 10 10v30z"/><path fill="#F7BF0F" d="M77.75 0H10C4.477 0 0 4.477 0 10v30c0 5.522 4.477 10 10 10h67.75V0z"/><g><path fill="#FFF" d="M277.05 9.374h-7.876l9.166 15.876-9.166 15.875h7.875l9.165-15.875z"/><g fill="#FFF"><path d="M94.597 19.183c0-.447-.158-.79-.474-1.03-.315-.238-.883-.49-1.704-.756-.82-.266-1.47-.527-1.95-.785-1.304-.705-1.956-1.654-1.956-2.848 0-.62.175-1.174.524-1.66.35-.487.852-.867 1.507-1.14.655-.273 1.39-.41 2.205-.41.82 0 1.55.147 2.193.445s1.14.715 1.495 1.257a3.3 3.3 0 0 1 .532 1.846h-2.367c0-.526-.165-.935-.497-1.227-.332-.292-.797-.438-1.396-.438-.58 0-1.028.122-1.35.367s-.48.567-.48.967c0 .374.188.686.564.938.375.252.93.49 1.66.71 1.346.404 2.327.906 2.942 1.506.615.6.923 1.346.923 2.24 0 .994-.377 1.773-1.13 2.34-.75.564-1.763.847-3.036.847-.883 0-1.688-.162-2.414-.485s-1.28-.767-1.66-1.33-.573-1.214-.573-1.955h2.374c0 1.267.76 1.9 2.273 1.9.562 0 1.002-.113 1.317-.342.32-.227.477-.547.477-.957zM107.265 10.71v7.566c0 1.257-.393 2.25-1.18 2.98-.786.732-1.86 1.098-3.22 1.098-1.342 0-2.407-.355-3.196-1.065-.79-.71-1.192-1.687-1.208-2.928v-7.65h2.367v7.58c0 .752.18 1.3.54 1.645.36.344.858.517 1.495.517 1.33 0 2.006-.7 2.027-2.098v-7.644h2.373zM109.206 22.196V10.71h4.023c1.393 0 2.45.268 3.17.802s1.08 1.316 1.08 2.347a2.59 2.59 0 0 1-.434 1.486 2.5 2.5 0 0 1-1.207.943c.588.146 1.052.443 1.39.89s.51.994.51 1.64c0 1.105-.352 1.94-1.057 2.51-.705.567-1.71.856-3.013.867h-4.464zm2.366-6.673h1.75c1.195-.02 1.792-.497 1.792-1.428 0-.52-.15-.896-.454-1.124-.303-.228-.78-.342-1.432-.342h-1.657v2.895zm0 1.672v3.1h2.027c.557 0 .992-.133 1.305-.398.312-.266.47-.632.47-1.1 0-1.053-.545-1.586-1.634-1.602h-2.168zM125.47 19.183c0-.447-.157-.79-.472-1.03s-.884-.49-1.704-.756-1.47-.527-1.948-.785c-1.304-.705-1.957-1.654-1.957-2.848 0-.62.174-1.174.524-1.66.35-.487.852-.867 1.506-1.14.655-.273 1.39-.41 2.205-.41.82 0 1.55.147 2.193.445s1.14.715 1.495 1.257a3.3 3.3 0 0 1 .532 1.846h-2.366c0-.526-.167-.935-.498-1.227-.332-.292-.797-.438-1.396-.438-.58 0-1.028.122-1.35.367s-.48.567-.48.967c0 .374.188.686.564.938.376.252.93.49 1.66.71 1.347.404 2.328.906 2.943 1.506.615.6.923 1.346.923 2.24 0 .994-.375 1.773-1.127 2.34-.753.564-1.766.847-3.038.847-.883 0-1.688-.162-2.414-.485-.726-.323-1.28-.767-1.66-1.33-.38-.56-.572-1.214-.572-1.955h2.374c0 1.267.757 1.9 2.272 1.9.562 0 1.002-.113 1.317-.342.313-.227.47-.547.47-.957zM138.462 18.37c-.09 1.236-.546 2.21-1.37 2.92-.822.708-1.907 1.064-3.253 1.064-1.473 0-2.632-.496-3.476-1.487-.844-.99-1.266-2.352-1.266-4.082v-.702c0-1.104.194-2.078.583-2.918.39-.842.946-1.487 1.67-1.937.723-.45 1.562-.674 2.52-.674 1.325 0 2.393.355 3.203 1.065s1.278 1.706 1.404 2.988h-2.366c-.057-.74-.263-1.28-.618-1.613s-.896-.5-1.62-.5c-.79 0-1.38.282-1.772.847-.392.566-.593 1.442-.604 2.63v.868c0 1.24.188 2.148.564 2.722.375.573.97.86 1.778.86.73 0 1.276-.168 1.637-.5s.566-.852.62-1.55h2.367zM144.268 17.992h-1.885v4.205h-2.367V10.71h4.268c1.357 0 2.403.303 3.14.908.736.605 1.104 1.46 1.104 2.563 0 .785-.17 1.438-.51 1.96-.338.524-.852.94-1.54 1.25l2.484 4.694v.11h-2.54l-2.154-4.202zm-1.885-1.917h1.91c.593 0 1.054-.15 1.38-.453.325-.303.488-.72.488-1.25 0-.542-.153-.968-.46-1.278s-.78-.465-1.416-.465h-1.9v3.445zM152.842 22.196h-2.366V10.71h2.366v11.486zM155.035 22.196V10.71h4.023c1.393 0 2.45.268 3.17.802s1.08 1.316 1.08 2.347c0 .562-.143 1.057-.434 1.486-.288.43-.69.743-1.205.943.587.146 1.052.443 1.39.89s.51.994.51 1.64c0 1.105-.352 1.94-1.057 2.51-.705.567-1.71.856-3.014.867h-4.465zm2.366-6.673h1.752c1.193-.02 1.79-.497 1.79-1.428 0-.52-.15-.896-.452-1.124-.303-.228-.78-.342-1.432-.342H157.4v2.895zm0 1.672v3.1h2.027c.558 0 .994-.133 1.307-.398.312-.266.47-.632.47-1.1 0-1.053-.546-1.586-1.634-1.602h-2.17zM172.255 17.22h-4.544v3.075h5.335v1.9h-7.7V10.712h7.684v1.918h-5.318v2.737h4.544v1.854zM186.627 12.628h-3.52v9.568h-2.365v-9.568h-3.47V10.71h9.354v1.918zM197.19 16.714c0 1.13-.2 2.122-.6 2.974-.4.852-.973 1.51-1.716 1.972-.746.463-1.598.694-2.562.694-.95 0-1.8-.23-2.548-.687-.746-.458-1.324-1.11-1.734-1.96-.41-.85-.62-1.826-.624-2.93v-.568c0-1.132.204-2.126.612-2.987.407-.86.982-1.52 1.728-1.98.743-.46 1.595-.69 2.55-.69.96 0 1.81.23 2.553.69.743.46 1.32 1.12 1.728 1.98.408.86.61 1.853.61 2.978v.514zm-2.4-.52c0-1.205-.214-2.12-.647-2.746-.43-.625-1.045-.938-1.846-.938-.792 0-1.406.31-1.836.927-.432.618-.65 1.523-.655 2.717v.56c0 1.173.217 2.083.646 2.73.435.645 1.055.97 1.863.97.794 0 1.404-.313 1.83-.936.427-.623.642-1.532.646-2.725v-.56zM212.365 16.714c0 1.13-.2 2.122-.6 2.974-.4.852-.973 1.51-1.716 1.972-.744.463-1.6.694-2.56.694-.954 0-1.803-.23-2.55-.687-.745-.458-1.324-1.11-1.734-1.96s-.617-1.826-.623-2.93v-.568c0-1.132.204-2.126.61-2.987.407-.86.984-1.52 1.728-1.98.745-.46 1.596-.69 2.554-.69.956 0 1.807.23 2.553.69.743.46 1.318 1.12 1.726 1.98.407.86.612 1.853.612 2.978v.514zm-2.398-.52c0-1.205-.216-2.12-.646-2.746-.43-.625-1.045-.938-1.845-.938-.795 0-1.406.31-1.84.927-.43.618-.647 1.523-.652 2.717v.56c0 1.173.214 2.083.646 2.73.43.645 1.05.97 1.86.97.795 0 1.404-.313 1.83-.936s.642-1.532.646-2.725v-.56zM222.776 10.71v7.566c0 1.257-.392 2.25-1.18 2.98-.786.732-1.86 1.098-3.222 1.098-1.342 0-2.404-.355-3.194-1.065s-1.192-1.687-1.208-2.928v-7.65h2.368v7.58c0 .752.18 1.3.54 1.645.36.344.857.517 1.494.517 1.33 0 2.008-.7 2.028-2.098v-7.644h2.374zM228.97 17.992h-1.887v4.205h-2.366V10.71h4.268c1.357 0 2.403.303 3.14.908.737.605 1.105 1.46 1.105 2.563 0 .785-.17 1.438-.508 1.96-.34.524-.855.94-1.544 1.25l2.485 4.694v.11h-2.54l-2.154-4.202zm-1.887-1.917h1.91c.593 0 1.054-.15 1.38-.453.326-.303.49-.72.49-1.25 0-.542-.156-.968-.463-1.278-.31-.31-.78-.465-1.416-.465h-1.9v3.445zM95.55 35.248H91.01v3.076h5.332v1.902h-7.7V28.74h7.684v1.918h-5.316v2.737h4.543v1.853zM101.972 37.38l2.603-8.64h2.635l-4 11.486h-2.468L96.758 28.74h2.626l2.588 8.64zM115.2 35.248h-4.543v3.076h5.333v1.902h-7.7V28.74h7.684v1.918h-5.316v2.737h4.543v1.853zM126.717 40.227h-2.367l-4.607-7.557v7.557h-2.366V28.74h2.366l4.615 7.573V28.74h2.36v11.487zM137.2 30.658h-3.518v9.568h-2.367v-9.568h-3.47V28.74h9.354v1.918zM144.378 37.213c0-.447-.158-.79-.474-1.03-.315-.238-.883-.49-1.704-.757-.82-.266-1.47-.527-1.948-.784-1.305-.704-1.957-1.653-1.957-2.848 0-.62.175-1.174.524-1.66.35-.487.85-.867 1.506-1.14.655-.274 1.39-.412 2.205-.412.82 0 1.552.15 2.194.447s1.14.716 1.495 1.257a3.3 3.3 0 0 1 .53 1.846h-2.366c0-.525-.165-.935-.497-1.227-.332-.29-.797-.438-1.396-.438-.578 0-1.027.12-1.348.367-.32.244-.48.566-.48.965 0 .375.187.688.563.94.375.252.93.488 1.66.71 1.346.404 2.327.906 2.942 1.506.615.6.923 1.346.923 2.24 0 .994-.376 1.773-1.128 2.338-.752.566-1.764.85-3.037.85-.883 0-1.688-.162-2.414-.486-.725-.323-1.278-.766-1.66-1.328-.38-.564-.572-1.217-.572-1.957h2.374c0 1.268.758 1.9 2.272 1.9.562 0 1.002-.113 1.317-.342.32-.227.478-.547.478-.957zM161.715 40.227h-2.365l-4.607-7.557v7.557h-2.366V28.74h2.366l4.615 7.573V28.74h2.357v11.487zM170.692 35.248h-4.544v3.076h5.333v1.902h-7.698V28.74h7.684v1.918h-5.317v2.737h4.543v1.853zM181.814 36.913l1.547-8.173h2.36l-2.55 11.486h-2.382l-1.87-7.684-1.868 7.684h-2.383l-2.55-11.486h2.36l1.555 8.156 1.893-8.156h2.004l1.884 8.173zM192.953 37.213c0-.447-.158-.79-.475-1.03-.314-.238-.883-.49-1.703-.757s-1.47-.527-1.947-.784c-1.305-.704-1.957-1.653-1.957-2.848 0-.62.175-1.174.524-1.66.35-.487.854-.867 1.507-1.14.656-.274 1.392-.412 2.207-.412.82 0 1.55.15 2.19.447.644.296 1.143.716 1.495 1.257.355.542.533 1.157.533 1.846h-2.365c0-.525-.166-.935-.498-1.227-.33-.29-.797-.438-1.396-.438-.578 0-1.027.12-1.348.367a1.15 1.15 0 0 0-.48.965c0 .375.187.688.562.94.377.252.93.488 1.662.71 1.344.404 2.325.906 2.94 1.506.615.6.923 1.346.923 2.24 0 .994-.376 1.773-1.127 2.338-.752.566-1.765.85-3.037.85-.884 0-1.687-.162-2.413-.486-.726-.323-1.28-.766-1.66-1.328-.382-.564-.572-1.217-.572-1.957h2.375c0 1.268.756 1.9 2.27 1.9.563 0 1.003-.113 1.317-.342.318-.227.476-.547.476-.957zM199.293 38.324h5.026v1.902h-7.393V28.74h2.365v9.584zM212.586 35.248h-4.543v3.076h5.33v1.902h-7.697V28.74h7.682v1.918h-5.314v2.737h4.543v1.853zM223.565 30.658h-3.517v9.568h-2.367v-9.568h-3.47V28.74h9.354v1.918zM233.686 30.658h-3.518v9.568h-2.366v-9.568h-3.472V28.74h9.355v1.918zM241.945 35.248H237.4v3.076h5.332v1.902h-7.697V28.74h7.682v1.918h-5.315v2.737h4.544v1.853zM248.373 36.02h-1.886v4.206h-2.366V28.74h4.27c1.356 0 2.403.303 3.14.908.736.604 1.104 1.46 1.104 2.562 0 .783-.17 1.438-.508 1.96-.34.523-.854.94-1.543 1.25l2.484 4.694v.11h-2.54l-2.154-4.203zm-1.886-1.915h1.91c.593 0 1.054-.152 1.38-.454s.49-.72.49-1.25c0-.54-.156-.967-.463-1.277-.31-.31-.78-.465-1.416-.465h-1.9v3.447z"/></g><path d="M31.71 18.025l1.985-4.3h2.15L32.71 19.81v3.46h-2v-3.46l-3.13-6.082h2.155l1.972 4.3zM35.87 19.656c0-.703.135-1.33.406-1.88s.66-.977 1.17-1.28c.508-.3 1.1-.45 1.772-.45.957 0 1.738.292 2.343.877.606.586.943 1.38 1.013 2.386l.013.484c0 1.088-.303 1.96-.91 2.618-.608.658-1.423.986-2.445.986s-1.837-.327-2.447-.983c-.61-.655-.914-1.546-.914-2.674v-.084zm1.894.135c0 .675.126 1.19.38 1.547.253.356.616.535 1.088.535.46 0 .817-.176 1.075-.528.258-.353.386-.916.386-1.69 0-.66-.128-1.172-.386-1.536s-.62-.544-1.088-.544c-.464 0-.822.18-1.076.54s-.38.92-.38 1.677zM48 22.546c-.468.568-1.114.852-1.94.852-.76 0-1.34-.218-1.74-.655-.4-.437-.604-1.077-.613-1.92v-4.646H45.6v4.586c0 .74.337 1.108 1.01 1.108.642 0 1.083-.222 1.324-.668v-5.026h1.9v7.09h-1.782l-.052-.72zM51.807 16.655l-.89-.518c.375-.59.57-1.2.582-1.83v-1.106h1.506v1.017c0 .393-.11.82-.328 1.278s-.508.845-.87 1.16zM58.328 17.952a5.134 5.134 0 0 0-.682-.052c-.717 0-1.186.243-1.41.728v4.64h-1.893v-7.09h1.79l.05.845c.38-.65.908-.977 1.58-.977.21 0 .407.03.59.085l-.025 1.822zM62.377 23.398c-1.04 0-1.886-.318-2.54-.957-.652-.637-.978-1.487-.978-2.548v-.183c0-.713.137-1.35.412-1.912a3.03 3.03 0 0 1 1.17-1.297c.504-.302 1.08-.455 1.727-.455.97 0 1.732.306 2.29.917.557.612.835 1.48.835 2.602v.773H60.78c.06.463.246.835.554 1.114.308.28.698.42 1.17.42.73 0 1.3-.264 1.71-.793l.93 1.042c-.284.4-.668.714-1.153.94s-1.023.338-1.613.338zm-.216-5.825c-.374 0-.68.127-.913.38-.233.256-.383.62-.45 1.094h2.635v-.15c-.01-.422-.122-.748-.34-.98-.22-.23-.53-.344-.93-.344zM30.51 36.688h-1.966v-9.54h1.966v9.54zM33.95 29.598l.06.82c.506-.635 1.186-.95 2.038-.95.75 0 1.31.22 1.677.66.367.442.555 1.1.563 1.98v4.58h-1.894v-4.535c0-.4-.087-.693-.263-.874-.173-.182-.464-.272-.87-.272-.533 0-.933.227-1.2.68v5h-1.893V29.6h1.783zM42.377 34.375l1.317-4.777h1.98l-2.393 7.09h-1.807l-2.392-7.09h1.98l1.317 4.777zM46.493 27.763c0-.284.095-.518.285-.702.19-.183.45-.273.776-.273.324 0 .58.09.773.274.192.186.29.42.29.703 0 .288-.1.524-.293.708s-.45.275-.77.275-.576-.09-.77-.274a.933.933 0 0 1-.29-.707zm2.01 8.925h-1.9v-7.09h1.9v7.09zM52.332 27.854v1.744h1.212v1.39h-1.212v3.538c0 .262.05.45.15.564.1.113.293.17.578.17.21 0 .396-.016.557-.047v1.436c-.372.112-.753.17-1.146.17-1.327 0-2.004-.67-2.03-2.013v-3.82h-1.036v-1.39h1.035v-1.743h1.892zM57.862 36.818c-1.04 0-1.886-.318-2.54-.955-.653-.64-.98-1.488-.98-2.55v-.185c0-.71.14-1.348.414-1.91a3.03 3.03 0 0 1 1.17-1.297c.504-.303 1.08-.454 1.727-.454.97 0 1.733.306 2.29.916.558.612.836 1.48.836 2.602v.773h-4.516c.06.464.246.836.554 1.115s.698.42 1.17.42c.73 0 1.3-.266 1.71-.793l.93 1.04a2.84 2.84 0 0 1-1.153.94 3.76 3.76 0 0 1-1.613.338zm-.216-5.824c-.376 0-.68.127-.914.38-.234.256-.383.62-.45 1.093h2.635v-.15c-.01-.422-.122-.747-.34-.978-.22-.232-.53-.346-.93-.346zM61.558 33.09c0-1.105.248-1.984.744-2.64.496-.656 1.174-.983 2.035-.983.69 0 1.26.258 1.71.772v-3.617h1.9v10.064h-1.71l-.092-.753c-.472.59-1.08.884-1.822.884-.834 0-1.504-.328-2.008-.986-.505-.656-.757-1.57-.757-2.742zm1.894.14c0 .666.115 1.176.347 1.53.23.354.566.53 1.008.53.586 0 1-.246 1.24-.74v-2.803c-.237-.494-.646-.74-1.227-.74-.912 0-1.368.74-1.368 2.223z"/><g><title>Layer 1</title><path fill="#D3150D" d="M11.916 20.364c-2.156.702-3.315 3.082-2.59 5.313 1.48 4.542 6.288 4.296 10.76 7.808 1.397-5.39 5.54-8.245 4.11-12.642-.726-2.23-3.064-3.476-5.22-2.775-1.562.51-2.596 1.903-2.77 3.48-1.07-1.172-2.73-1.692-4.29-1.184z"/></g><text transform="translate(11.666 -42.143)"><tspan x="0" y="0" fill="#FFF" font-family="'Roboto-Bold'" font-size="17.95">SUBSCRIBE TO OUR</tspan><tspan x="0" y="20.033" fill="#FFF" font-family="'Roboto-Bold'" font-size="17.95">EVENTS NEWSLETTER</tspan></text><text transform="translate(-46.166 -40.62)"><tspan x="0" y="0" font-family="'Roboto-Bold'" font-size="14.912">You’re</tspan><tspan x="0" y="14.912" font-family="'Roboto-Bold'" font-size="14.912">Invited</tspan></text></g></svg>