<svg xmlns="http://www.w3.org/2000/svg" xmlns:xlink="http://www.w3.org/1999/xlink" viewBox="0 0 300 50"><style>.st0{fill:#58b4ac}.st0,.st1{display:none}.st1,.st2{fill:#2f6a5e}.st3{clip-path:url(#SVGID_2_)}.st3,.st4{opacity:.1}.st5{clip-path:url(#SVGID_4_)}.st6{display:none}.st7,.st8{display:inline}.st8{clip-path:url(#SVGID_6_);fill:url(#SVGID_7_)}.st9{fill:#6fc29f}.st10{stroke:#6fc29f;stroke-width:3;stroke-linecap:round;stroke-linejoin:round;stroke-miterlimit:10}.st10,.st11{fill:none}.st12{fill:#ffd200}.st13{fill:#FFF}</style><g id="background"><path class="st0" d="M-6-12.05h308.91v157.91H-6z"/><path class="st1" d="M-5.71-11.3h308.88V146H-5.71z"/><path class="st2" d="M290 50H10C4.48 50 0 45.52 0 40V10C0 4.48 4.48 0 10 0h280c5.52 0 10 4.48 10 10v30c0 5.52-4.48 10-10 10z"/><defs><path id="SVGID_1_" d="M290 50H10C4.48 50 0 45.52 0 40V10C0 4.48 4.48 0 10 0h280c5.52 0 10 4.48 10 10v30c0 5.52-4.48 10-10 10z"/></defs><clipPath id="SVGID_2_"><use xlink:href="#SVGID_1_" overflow="visible"/></clipPath><g class="st3"><defs><path id="SVGID_3_" class="st4" d="M-6-11.01h308.91v156.87H-6z"/></defs><clipPath id="SVGID_4_"><use xlink:href="#SVGID_3_" overflow="visible"/></clipPath><g class="st5"><g class="st6"><defs><path id="SVGID_5_" d="M90.89-11.01C69.82 6.29 56.38 32.55 56.38 61.94c0 36.55 20.78 68.25 51.18 83.92h86.35c30.39-15.67 51.18-47.37 51.18-83.92 0-29.39-13.44-55.65-34.51-72.95H90.89z"/></defs><clipPath id="SVGID_6_" class="st7"><use xlink:href="#SVGID_5_" overflow="visible"/></clipPath><radialGradient id="SVGID_7_" cx="-169.024" cy="187.757" r=".483" gradientTransform="matrix(195.4814 0 0 -195.4814 33191.72 36764.93)" gradientUnits="userSpaceOnUse"><stop offset="0" stop-color="#b8d9d7"/><stop offset=".003" stop-color="#b8d9d7"/><stop offset=".996" stop-color="#58b4ac"/><stop offset="1" stop-color="#58b4ac"/></radialGradient><path class="st8" d="M56.38-11.01h188.7v156.87H56.38z"/></g><path class="st9" d="M197.64-13.11c2.47-.91 3.9.12 4.19 2.36.52.06 1.05.08 1.56.2 2.05.46 3.22 1.89 3.96 3.74.77 1.93.99 3.97 1.05 6.03.14 4.47-.49 8.86-1.38 13.23-.1.51-.36.84-.85 1.05-8.26 3.61-16.51 7.24-24.77 10.86-1.39.61-2.84 1-4.34.59-2.23-.62-3.65-2.1-4.3-4.33-.57-1.95-.65-3.94-.53-5.95.22-3.66.96-7.21 2.37-10.6 1.92-4.61 4.09-9.11 6.96-13.22.77-1.1 1.69-2.1 2.62-3.08.76-.79 1.73-1.13 2.86-.94.13.02.32-.11.44-.21.5-.44.93-.97 1.47-1.33.83-.56 1.75-.57 2.6.01.59.4 1.18.49 1.88.42.85-.08 1.73-.02 2.59.07.7.07 1.27.42 1.62 1.1M178.4 23.31c.79.03 1.56-.24 2.31-.57 8.1-3.55 16.2-7.11 24.29-10.67.18-.08.37-.31.4-.5.26-1.36.52-2.72.71-4.09.19-1.37.32-2.74.49-4.24-.42.25-.72.44-1.02.61-.56.33-1.06.25-1.35-.2-.29-.45-.14-.95.41-1.3.54-.34 1.07-.67 1.63-.98.32-.17.42-.39.4-.74-.06-1.06-.05-2.12-.14-3.17-.12-1.4-.38-2.78-1-4.06-.67-1.4-1.69-2.31-3.32-2.34-.96-.02-1.85.27-2.68.74-1.86 1.06-3.28 2.62-4.59 4.27-2.7 3.4-4.84 7.16-6.94 10.94-2.04 3.65-4.01 7.35-6.1 10.97-1.07 1.82-2.32 3.54-3.5 5.33m10.23-26.88c-.41-.21-.79-.39-1.16-.59-.58-.32-1.19-.6-1.73-.98-.78-.55-1.05-1.42-.82-2.26.28-1.01.94-1.6 1.95-1.68.42-.03.86 0 1.27.08 1.09.21 2.16.52 3.26.68.41.06.91-.1 1.29-.31.45-.25.4-.54-.06-.78-.21-.11-.44-.17-.67-.26-.47-.2-.69-.62-.55-1.07.15-.48.58-.75 1.09-.59.48.16.98.35 1.38.64 1.04.75 1.18 2.01.37 3.01-.7.87-1.65 1.24-2.73 1.14-.93-.09-1.84-.34-2.76-.52-.45-.09-.9-.21-1.35-.28-.3-.05-.64-.06-.77.33-.12.38.18.52.42.66.42.23.86.42 1.28.65.42.23.86.44 1.24.72.85.63 1.01 1.59.47 2.5-.61 1.04-1.61 1.48-2.91 1.14-.92-.24-1.8-.63-2.71-.92-.38-.13-.79-.22-1.19-.24-.16-.01-.42.2-.47.36-.05.15.04.46.17.56.36.28.78.48 1.17.73.68.42 1.41.79 2.03 1.28.93.74 1.1 1.82.58 2.92-.44.94-1.26 1.36-2.43 1.13-.7-.14-1.36-.42-2.05-.65-.62-.2-1.22-.42-1.85-.6-.39-.11-.7.02-.85.44-.15.43-.11.79.32 1.01.39.2.81.36 1.22.53.73.29 1.49.52 2.18.88.91.47 1.26 1.3 1.05 2.18-.26 1.06-1.02 1.73-2.05 1.76-.39.01-.79-.01-1.17-.07-.74-.1-1.48-.25-2.23-.35-.31-.04-.64-.04-.75.36-.11.39.16.58.45.71.67.31 1.35.59 2.02.88.95.42 1.74.96 1.63 2.34.2-.34.31-.53.41-.72 1.99-3.59 3.94-7.19 5.97-10.76 1.69-2.97 3.55-5.85 5.8-8.44 1.54-1.77 3.21-3.36 5.44-4.26.1-.04.21-.22.21-.33-.01-.9-.46-1.23-1.33-.97-.38.11-.74.27-1.11.4-.29.1-.58.21-.88.26-.74.12-1.23-.42-1.07-1.14.03-.13.07-.25.11-.38-.77-.31-1.52-.2-2.26-.07-.98.17-1.88.01-2.68-.57-.47-.35-.88-.28-1.23.09-.42.44-.8.93-1.16 1.42-.37.5-.77.66-1.27.36-.59-.35-1.13-.28-1.6.16-.63.6-1.27 1.21-1.79 1.89-2.31 2.99-4.04 6.33-5.67 9.72-1.61 3.35-3.05 6.76-3.64 10.47-.06.41-.12.81-.18 1.23.49-.18.89-.38 1.32-.46.43-.07.89-.02 1.4-.02-.07-.12-.09-.16-.13-.2-.68-.76-.7-1.6-.31-2.48.38-.86 1.09-1.24 2.01-1.24.42 0 .85.04 1.27.09.74.1 1.48.24 2.23.31.16.01.34-.21.51-.33-.11-.14-.2-.36-.34-.42-.52-.22-1.07-.36-1.58-.59-.68-.3-1.4-.57-2.01-.99-.99-.68-1.19-1.79-.67-3.03.44-1.07 1.38-1.65 2.55-1.43.78.15 1.54.44 2.3.68.58.19 1.16.42 1.75.58.16.05.46-.01.54-.12.11-.15.13-.44.06-.62-.07-.19-.26-.36-.44-.48-.45-.28-.93-.51-1.38-.79-.59-.37-1.22-.7-1.74-1.16-.66-.57-.83-1.35-.54-2.2.31-.89.86-1.59 1.84-1.61.71-.02 1.45.15 2.15.34.8.22 1.57.58 2.36.83.44.15.91.16 1.2-.49m-12.07 26.03c1.86-1.99 3.17-4.28 4.54-6.58-1.25-.98-2.53-1.86-4.06-2.27-.28-.07-.57-.09-.86-.1-.53-.02-.95.22-1.16.7-.2.45-.36.92-.46 1.4-.52 2.59-.08 4.92 2 6.85"/><path class="st9" d="M188.99 14.4c0 .46.01.92 0 1.38-.01.51-.39.89-.86.9-.47 0-.87-.38-.88-.88-.01-.94-.01-1.88 0-2.81.01-.5.42-.89.88-.87.47.02.84.4.85.91.02.45.01.91.01 1.37M194.97 6.72c.69.09 1.15.64.95 1.2-.27.79-.59 1.56-.94 2.32-.21.46-.7.6-1.12.4-.43-.2-.63-.63-.46-1.1.27-.73.54-1.47.88-2.17.13-.26.45-.43.69-.65M199.2 1.5c-.65.01-2.64-1.31-2.69-1.73-.04-.3.03-.74.23-.9.22-.18.72-.27.96-.14.66.35 1.26.81 1.85 1.27.31.24.43.62.21.96-.16.25-.45.43-.56.54M200.48 10.74c-.31 0-.62.02-.92 0-.52-.03-.89-.42-.88-.89.01-.48.37-.85.9-.86.63-.02 1.27-.02 1.9 0 .49.02.84.38.86.85.01.43-.31.83-.77.88-.35.04-.72.01-1.08.01v.01zM201.63-6.61c.14.12.48.3.61.58.26.59.43 1.22.59 1.84.12.47-.16.91-.6 1.04a.843.843 0 0 1-1.05-.51c-.23-.62-.43-1.26-.57-1.9-.14-.55.28-1.03 1.02-1.05M208.72 18.91c1.33 0 2.09 1.14 2.09 1.14.04.06 4.13 5.97 9.79 6.66.36.04.72.07 1.08.07 2.3 0 4.59-.91 6.83-2.73 0 0 .9-.43 1.66-.43.25 0 .48.04.66.16.93.59 1.18 1.66 1.3 2.53.21 1.51.58 4.79.94 8.62.02.26.05.52.07.78.01.06.01.11.01.17l.02 1.72.02 1.5c.04.5.06.92.06 1.28-.02 2.42-1.16 4.12-3.83 4.53-.77.12-1.72.17-2.92.17-1.13 0-2.49-.05-4.13-.16a55.45 55.45 0 0 0-3.56-.12h-.38c-.89.01-5.99.41-6.88.52-.47.06-10.68 1.15-13.34 1.15h-.06c-8.82 0-12.99-.66-17.3-2.24-8.17-3.02-5.51-12.89-.32-13.92.67-.13 1.45-.17 2.39-.26 1.13-.11 7.13-1.62 7.92-1.93.23.62.62 1.42 1.49 2.13.13.1.02.02.16.12.24.16.51.32.81.46a.968.968 0 0 0 1.28-.45c.09-.18.11-.36.09-.54-.01-.1-.04-.2-.09-.29a.96.96 0 0 0-.44-.45c-1.22-.59-1.36-1.23-1.53-1.72.42-.18.84-.36 1.26-.55.27.74.84 1.75 2.1 2.55.1.06.22.13.33.19.11.06.23.13.34.18.13.06.28.1.42.1.35 0 .7-.2.86-.54.06-.13.09-.28.09-.42 0-.11-.02-.22-.06-.32a.89.89 0 0 0-.48-.53c-1.33-.65-1.74-1.57-1.86-2.04.34-.17.68-.33 1-.5.3.78.93 1.83 2.29 2.62.12.07.25.14.38.21.02.01.05.03.07.04a.968.968 0 0 0 1.28-.45c.05-.1.08-.2.1-.3v-.01c.01-.15-.01-.3-.05-.43a.943.943 0 0 0-.48-.54c-1.33-.65-1.75-1.58-1.87-2.04l.46-.25c.2-.1.39-.21.59-.32.38.79 1.11 1.74 2.51 2.44.02.01.05.02.07.04a.974.974 0 0 0 .75.03h.01c.09-.03.18-.08.27-.15.1-.08.18-.19.25-.32.08-.16.1-.33.09-.5a.937.937 0 0 0-.54-.78c-1.04-.51-1.52-1.18-1.73-1.67.36-.2.71-.39 1.06-.58.42.73 1.15 1.53 2.4 2.13.02.01.06.03.09.04.1.04.22.06.32.06.35 0 .7-.2.86-.54a.96.96 0 0 0-.45-1.27c-.82-.4-1.56-1.34-1.56-1.34l3.01-1.96c.74-.56 1.38-.75 1.93-.75M191.54 32.5c-2.12 0-3.15-.85-3.86-1.52-1.84.54-3.41.87-4.57.97-.87.08-1.58.15-2.21.24.53.42 1.73 3.3 4.49 3.34 4.98.08 11.02-.29 12.8 5.17.21.01.42.02.64.02h.16c.49 0 1.21-.04 2.06-.1l-5.21-7.7 1.89-.96 5.88 8.45c.67-.05 1.37-.12 2.05-.19l-6.44-9.03 1.89-.96 7.07 9.73c.62-.06 1.19-.12 1.68-.18l-7.37-10.24 1.88-.96 7.99 10.94c.45-.04 1.05-.1 1.71-.15l-8.28-11.51 1.89-.96 8.97 12.27c.92-.07 1.67-.11 1.99-.12h.39c1.16 0 2.35.04 3.62.12 1.58.11 2.86.16 3.92.16.42 0 .81-.01 1.17-.03 3.29-1.95 2.62-10.87 1.62-13.32-2.46 1.83-5.03 2.75-7.65 2.75-.46 0-.93-.03-1.4-.08-4.57-.57-8.11-3.77-9.95-5.83L208 24.6c-.29.23-7.74 6.11-13.93 7.57-.99.24-1.82.33-2.53.33m6.61 12.06h.06c2.52 0 12.66-1.08 13.11-1.13.86-.1 6.09-.52 7.1-.53h.43c1.17 0 2.37.04 3.65.12 1.61.11 2.93.16 4.02.16 1.09 0 1.94-.05 2.62-.16 1.9-.29 2.17-1.36 2.19-2.52-.52.27-1.14.45-1.9.57-.76.12-1.69.18-2.87.18-1.11 0-2.44-.05-4.05-.16-1.23-.08-2.37-.12-3.49-.12h-.37c-.87.01-5.87.41-6.75.52-.09.01-9.88 1.15-12.88 1.15-.08 0-.17-.01-.24-.01-12.12-.31-14.35-1.22-18.39-2.89l-.2-.08c-.98-.41-1.74-.87-2.34-1.35.6 1.51 1.76 3.37 3.72 4.14 4.01 1.6 8.04 2.11 16.58 2.11m10.57-27.35c-.98 0-1.95.35-2.89 1.05l-2.97 1.93-.17.11-1.38.75c-.16.09-.33.18-.5.27-.18.1-.37.2-.56.31l-.12.07-.15.08-1.1.59v.01l-.31.17c-.19.1-.38.21-.56.3l-.01.01-.01.01-.46.25-.31.17-1.38.71c-.31.16-.64.32-.97.48l-1.06.52-.64.29c-.33.15-.66.29-.99.44l-.24.1-.76.33-.95.38c-.76.29-6.56 1.73-7.46 1.82-.2.02-.41.04-.61.05-.69.06-1.34.11-1.95.23-3.3.65-5.92 3.98-6.23 7.9-.34 4.24 2.02 7.71 6.29 9.29 4.77 1.76 9.28 2.35 17.89 2.35h.06c2.78 0 13.07-1.1 13.55-1.16.84-.1 5.86-.5 6.68-.5h.37c1.11 0 2.24.04 3.45.12 1.7.11 3.09.16 4.24.16 1.27 0 2.31-.06 3.17-.19 3.32-.51 5.24-2.77 5.27-6.2a14 14 0 0 0-.07-1.38l-.02-1.43-.02-1.73v-.06l-.01-.06c0-.05 0-.1-.01-.15l-.03-.28-.05-.52c-.36-3.86-.74-7.15-.95-8.69-.1-.73-.38-2.66-2.07-3.74-.44-.28-.97-.43-1.57-.43-1.09 0-2.18.49-2.39.59l-.18.09-.16.13c-1.92 1.56-3.85 2.35-5.75 2.35-.29 0-.58-.02-.87-.05-4.74-.58-8.45-5.73-8.6-5.95-.22-.34-1.41-1.89-3.48-1.89m.34 8.72l1.09-.83c2.12 2.08 5.58 4.71 9.92 5.25.56.06 1.09.1 1.61.1 2.24 0 4.45-.58 6.57-1.74.43 3.03.22 7.59-1.13 8.93-.18 0-.38.01-.58.01-1.01 0-2.25-.05-3.81-.15-1.31-.09-2.53-.13-3.74-.13h-.4c-.24 0-.65.02-1.16.06l-8.37-11.5zm-24.74 7.58c.86-.14 1.84-.36 2.94-.65.56.42 1.23.81 2.09 1.05-.99-.05-1.96-.06-2.86-.07-.36 0-.72-.01-1.08-.01-.4 0-.76-.12-1.09-.32m7.73.68c.73-.04 1.52-.15 2.35-.34l.02.03.83 1.22c-1-.44-2.09-.73-3.2-.91M240.1 58.9c2.99-1.37 4.47-3.65 4.42-6.78-.05-2.83-.04-5.71-.03-8.5 0-1.22.01-2.44.01-3.66 0-.9.29-1.3 1.16-1.57.42-.13.84-.26 1.26-.4l3.26-1.02c2.74-.86 5.57-1.75 8.35-2.61.25-.08.39-.08.45-.08.02.05.05.19.05.45v9.38c-3.27-.83-7.22.6-9.1 3.39-.99 1.47-1.26 3.09-.77 4.56.49 1.46 1.66 2.57 3.31 3.14 2.24.78 4.51.58 6.73-.58 2.75-1.43 4.07-3.58 4.03-6.57-.06-4.86-.05-9.8-.04-14.58 0-1.98.01-3.97.01-5.95v-.14c0-.22 0-.45-.02-.69-.13-1.55-1.22-2.68-2.71-2.81a4.76 4.76 0 0 0-1.76.2c-5.2 1.57-9.94 3.02-14.48 4.43-2.46.76-3.92 2.78-3.92 5.4v14.13c-3.28-.67-7.09.85-8.91 3.7-.96 1.51-1.18 3.22-.61 4.68.57 1.45 1.88 2.54 3.61 3 .72.19 1.44.28 2.15.28 1.21-.01 2.39-.27 3.55-.8m-7.85-3.05c-.24-.62-.27-1.29-.1-1.97.11-.44.3-.88.58-1.31 1.23-1.94 3.69-3.14 6.03-3.14.72 0 1.42.11 2.08.35.24.09.5.05.71-.09.21-.14.33-.38.33-.63V33.91c0-1.94 1.03-3.37 2.84-3.93 4.54-1.41 9.27-2.85 14.47-4.42.41-.12.82-.17 1.17-.14.75.07 1.24.6 1.31 1.41.01.17.01.36.01.55v.15c0 1.98 0 3.96-.01 5.95-.01 4.79-.02 9.73.03 14.6.01.4-.02.77-.08 1.13-.27 1.79-1.28 3.09-3.13 4.05-1.83.95-3.69 1.12-5.51.49-1.19-.41-2.02-1.18-2.35-2.17-.19-.58-.21-1.2-.05-1.83.12-.46.33-.93.64-1.39 1.61-2.4 5.27-3.58 7.99-2.59l.31.11c.23.08.49.05.69-.08.12-.08.21-.2.27-.32a.68.68 0 0 0 .07-.28c0-.07.01-.13.01-.19.01-.15.02-.28.02-.41v-9.86c0-.3 0-1.2-.67-1.7s-1.54-.23-1.83-.14c-2.79.86-5.62 1.75-8.36 2.61l-3.26 1.02c-.42.13-.85.26-1.27.4-.54.17-.99.41-1.33.73-.6.55-.9 1.31-.9 2.31 0 1.22 0 2.43-.01 3.65-.01 2.8-.02 5.69.03 8.53.01.41-.02.8-.08 1.17-.29 1.9-1.4 3.24-3.45 4.18-1.51.69-3.08.84-4.65.42-1.25-.33-2.16-1.07-2.55-2.07"/><path class="st10" d="M231.7.11l9.31 1.64-6.97 6.39 1.31 9.37-8.23-4.66-8.5 4.14 1.88-9.26-6.56-6.81 9.39-1.07 4.45-8.35z"/><path class="st9" d="M145.9 17.72c-.65 0-1.17.52-1.17 1.17v25.57c0 .64.52 1.17 1.17 1.17.64 0 1.17-.53 1.17-1.17V18.88c0-.64-.53-1.16-1.17-1.16m-8.72 0c-.65 0-1.17.52-1.17 1.17v25.57c0 .64.52 1.17 1.17 1.17.65 0 1.17-.53 1.17-1.17V18.88c-.01-.64-.53-1.16-1.17-1.16m8.72 0c-.65 0-1.17.52-1.17 1.17v25.57c0 .64.52 1.17 1.17 1.17.64 0 1.17-.53 1.17-1.17V18.88c0-.64-.53-1.16-1.17-1.16m-8.72 0c-.65 0-1.17.52-1.17 1.17v25.57c0 .64.52 1.17 1.17 1.17.65 0 1.17-.53 1.17-1.17V18.88c-.01-.64-.53-1.16-1.17-1.16m18.48-6.31v-2.5c0-4.34-3.75-8-8.18-8-.44 0-.88.04-1.31.11-1.98-2.54-5-4.04-8.24-4.04-2.63 0-5.1.96-7.04 2.72-.46-.07-.93-.1-1.39-.1-5.36 0-10.06 4.35-10.06 9.31v40.03c0 3.21 2.61 5.83 5.83 5.83h24.55c3.21 0 5.83-2.62 5.83-5.83v-3.8c7.99-.63 14.33-7.96 14.33-16.87.01-8.9-6.33-16.22-14.32-16.86M129.5 1.94c.51 0 1.03.05 1.51.16l.64.15.46-.47a8.07 8.07 0 0 1 5.82-2.46c2.73 0 5.26 1.36 6.77 3.65l.47.71.82-.23c.48-.13.99-.2 1.5-.2 2.76 0 5.15 1.97 5.72 4.5h-13.12l-.04 1.12s-.02.41-.02.63a4.025 4.025 0 0 1-4.02 4.03c-.64 0-1.28-.16-1.84-.45-.63-.32-1.35-.3-1.94.06-.58.35-.93.96-.93 1.65v8.2c0 .37-.15.72-.42.99-.27.26-.63.39-1.01.37-.71-.04-1.29-.72-1.29-1.51V7.75h-6.66c.65-3.17 3.97-5.81 7.58-5.81m-4.22 50.51c-1.93 0-3.5-1.57-3.5-3.5V10.08h4.45v12.76c0 1.07.42 2.02 1.09 2.72-.02.08-.03.17-.03.26v18.63c0 .64.53 1.17 1.17 1.17.65 0 1.17-.53 1.17-1.17V26.66c.04 0 .08.02.12.02.07.01.13.01.19.01.95 0 1.85-.36 2.54-1.02a3.69 3.69 0 0 0 1.14-2.67v-7.58c.75.3 1.56.46 2.38.46 3.31 0 6.04-2.54 6.34-5.79h11v38.87c0 1.93-1.57 3.5-3.5 3.5h-24.56zm30.38-9.65V13.76c6.71.64 12 6.91 12 14.53 0 7.62-5.29 13.88-12 14.51m-9.76-25.08c-.65 0-1.17.52-1.17 1.17v25.57c0 .64.52 1.17 1.17 1.17.64 0 1.17-.53 1.17-1.17V18.88c0-.64-.53-1.16-1.17-1.16m-8.72 0c-.65 0-1.17.52-1.17 1.17v25.57c0 .64.52 1.17 1.17 1.17.65 0 1.17-.53 1.17-1.17V18.88c-.01-.64-.53-1.16-1.17-1.16"/><path class="st10" d="M104.77 36.51l9.31 1.65-6.97 6.39 1.31 9.36-8.23-4.65-8.51 4.14 1.89-9.27L87 37.32l9.4-1.07 4.44-8.34z"/><path class="st9" d="M267.56-8.44a.87.87 0 0 0-.87.87v19.11c0 .48.39.87.87.87s.87-.4.87-.87V-7.57c0-.48-.4-.87-.87-.87m-6.52 0a.87.87 0 0 0-.87.87v19.11c0 .48.39.87.87.87s.87-.4.87-.87V-7.57a.87.87 0 0 0-.87-.87m6.52 0a.87.87 0 0 0-.87.87v19.11c0 .48.39.87.87.87s.87-.4.87-.87V-7.57c0-.48-.4-.87-.87-.87m-6.52 0a.87.87 0 0 0-.87.87v19.11c0 .48.39.87.87.87s.87-.4.87-.87V-7.57a.87.87 0 0 0-.87-.87m13.81-4.71v-1.86c0-3.24-2.8-5.98-6.11-5.98-.33 0-.66.03-.98.08a7.798 7.798 0 0 0-6.16-3.02 7.8 7.8 0 0 0-5.26 2.03c-.34-.05-.69-.08-1.04-.08-4 0-7.51 3.25-7.51 6.96v29.91c0 2.4 1.95 4.36 4.36 4.36h18.34c2.4 0 4.36-1.96 4.36-4.36v-2.84c5.97-.47 10.71-5.94 10.71-12.6 0-6.66-4.74-12.13-10.71-12.6m-19.55-7.08c.38 0 .77.04 1.13.12l.47.11.34-.35a6.02 6.02 0 0 1 4.35-1.84c2.04 0 3.93 1.02 5.06 2.73l.35.53.61-.17c.36-.1.74-.15 1.12-.15 2.06 0 3.85 1.47 4.27 3.36h-9.8l-.03.84s-.01.31-.01.47c0 .1-.01.21-.02.31a3.014 3.014 0 0 1-2.99 2.71c-.48 0-.95-.12-1.38-.34-.47-.24-1.01-.23-1.45.05-.44.26-.69.72-.69 1.23v6.13c0 .28-.11.54-.31.74-.2.19-.47.29-.76.28-.53-.03-.96-.53-.96-1.13v-11.28h-4.98c.5-2.38 2.98-4.35 5.68-4.35m-3.15 37.74c-1.44 0-2.61-1.17-2.61-2.62v-29.04h3.32v9.54c0 .8.31 1.51.81 2.03-.01.06-.02.13-.02.19v13.92c0 .48.4.87.87.87.48 0 .87-.4.87-.87v-13.3c.03 0 .06.01.09.01.05.01.1.01.15.01.71 0 1.38-.27 1.9-.76.55-.52.85-1.25.85-2v-5.67c.56.23 1.17.34 1.78.34 2.48 0 4.51-1.9 4.74-4.32h8.22v29.04c0 1.44-1.17 2.62-2.62 2.62h-18.35zm22.7-7.21v-21.7c5.02.48 8.97 5.16 8.97 10.85-.01 5.7-3.96 10.38-8.97 10.85m-7.29-18.74a.87.87 0 0 0-.87.87v19.11c0 .48.39.87.87.87s.87-.4.87-.87V-7.57c0-.48-.4-.87-.87-.87m-6.52 0a.87.87 0 0 0-.87.87v19.11c0 .48.39.87.87.87s.87-.4.87-.87V-7.57a.87.87 0 0 0-.87-.87M-18.11-15.81c-.59 0-1.07.48-1.07 1.07V8.74c0 .59.48 1.07 1.07 1.07.59 0 1.07-.49 1.07-1.07v-23.48c0-.59-.49-1.07-1.07-1.07m-8.02 0c-.59 0-1.07.48-1.07 1.07V8.74c0 .59.48 1.07 1.07 1.07.59 0 1.07-.49 1.07-1.07v-23.48a1.06 1.06 0 0 0-1.07-1.07m8.02 0c-.59 0-1.07.48-1.07 1.07V8.74c0 .59.48 1.07 1.07 1.07.59 0 1.07-.49 1.07-1.07v-23.48c0-.59-.49-1.07-1.07-1.07m-8.02 0c-.59 0-1.07.48-1.07 1.07V8.74c0 .59.48 1.07 1.07 1.07.59 0 1.07-.49 1.07-1.07v-23.48a1.06 1.06 0 0 0-1.07-1.07m16.98-5.79v-2.29c0-3.98-3.44-7.35-7.51-7.35-.41 0-.81.04-1.2.1a9.546 9.546 0 0 0-7.57-3.71c-2.41 0-4.68.89-6.46 2.5-.42-.06-.85-.09-1.28-.09-4.92 0-9.23 3.99-9.23 8.55v36.76c0 2.95 2.4 5.36 5.36 5.36h22.54c2.95 0 5.36-2.41 5.36-5.36V9.38C-1.81 8.8 4.01 2.08 4.01-6.11c0-8.19-5.82-14.91-13.16-15.49m-24.02-8.7c.47 0 .94.05 1.39.15l.59.14.42-.43a7.402 7.402 0 0 1 5.35-2.26c2.51 0 4.83 1.25 6.21 3.35l.43.65.75-.21c.44-.12.91-.19 1.38-.19 2.53 0 4.73 1.81 5.25 4.13h-12.05l-.04 1.03s-.01.38-.01.58a3.71 3.71 0 0 1-3.7 3.71c-.59 0-1.17-.14-1.69-.41-.58-.29-1.24-.28-1.79.06-.54.32-.85.89-.85 1.51v7.53c0 .34-.14.66-.39.91-.25.24-.58.36-.93.34-.65-.04-1.19-.66-1.19-1.39v-13.86h-6.11c.61-2.91 3.66-5.34 6.98-5.34m-3.88 46.38c-1.77 0-3.21-1.44-3.21-3.21v-35.69h4.08v11.72c0 .98.39 1.86 1 2.5-.01.07-.03.16-.03.24v17.1c0 .59.49 1.07 1.07 1.07.59 0 1.07-.49 1.07-1.07V-7.6c.04 0 .07.01.11.01.06.01.12.01.18.01.87 0 1.7-.33 2.34-.94.67-.64 1.05-1.53 1.05-2.46v-6.96c.69.28 1.44.42 2.18.42 3.04 0 5.55-2.34 5.82-5.31h10.1v35.69c0 1.77-1.44 3.21-3.21 3.21h-22.55zm27.9-8.85v-26.67c6.16.58 11.02 6.34 11.02 13.33 0 7-4.86 12.75-11.02 13.34m-8.96-23.04c-.59 0-1.07.48-1.07 1.07V8.74c0 .59.48 1.07 1.07 1.07.59 0 1.07-.49 1.07-1.07v-23.48c0-.59-.49-1.07-1.07-1.07m-8.02 0c-.59 0-1.07.48-1.07 1.07V8.74c0 .59.48 1.07 1.07 1.07.59 0 1.07-.49 1.07-1.07v-23.48a1.06 1.06 0 0 0-1.07-1.07M94.22 26.25c2.5-1.15 3.75-3.05 3.7-5.67-.04-2.37-.03-4.78-.02-7.12 0-1.02.01-2.04.01-3.06 0-.75.24-1.08.97-1.31.35-.11.7-.22 1.06-.33l2.73-.86c2.29-.72 4.66-1.46 6.99-2.18.21-.07.33-.07.37-.07.02.05.05.15.05.37v7.85c-2.74-.69-6.04.5-7.62 2.84-.83 1.23-1.06 2.59-.65 3.82.41 1.22 1.39 2.15 2.77 2.63 1.88.65 3.77.49 5.63-.48 2.3-1.2 3.4-3 3.37-5.5-.05-4.07-.04-8.2-.03-12.21 0-1.66.01-3.32.01-4.98v-.12c0-.19 0-.38-.02-.58-.11-1.3-1.02-2.24-2.27-2.36a3.93 3.93 0 0 0-1.47.17c-4.35 1.32-8.32 2.53-12.12 3.71-2.06.64-3.28 2.33-3.28 4.52v11.82c-2.75-.56-5.94.71-7.45 3.1-.8 1.27-.99 2.69-.51 3.91.48 1.22 1.58 2.13 3.02 2.51.6.16 1.2.24 1.8.24 1 .01 1.99-.21 2.96-.66m-6.58-2.55a2.65 2.65 0 0 1-.08-1.65c.09-.37.25-.74.48-1.1 1.03-1.62 3.09-2.63 5.05-2.63.6 0 1.19.09 1.74.3a.65.65 0 0 0 .87-.61V5.34c0-1.62.87-2.82 2.38-3.29 3.8-1.18 7.76-2.39 12.11-3.7.34-.1.69-.15.98-.12.63.06 1.04.5 1.1 1.18.01.14.01.3.01.46V0c0 1.66 0 3.32-.01 4.98-.01 4.01-.02 8.15.03 12.22 0 .33-.02.65-.06.94-.23 1.49-1.07 2.59-2.62 3.39-1.53.8-3.08.94-4.61.41-.99-.34-1.69-.99-1.97-1.82-.16-.48-.17-1-.04-1.53.1-.39.28-.78.53-1.16 1.35-2.01 4.42-3 6.69-2.17l.26.09c.19.07.41.04.58-.07a.667.667 0 0 0 .29-.5c0-.06.01-.11.01-.16.01-.12.01-.24.01-.35V6.02c0-.25 0-1.01-.56-1.42-.56-.42-1.29-.19-1.53-.12-2.33.72-4.7 1.46-7 2.18l-2.73.85-1.06.33c-.46.16-.83.37-1.12.63-.51.46-.76 1.1-.76 1.94 0 1.02 0 2.04-.01 3.06-.01 2.34-.02 4.76.02 7.14.01.34-.02.67-.06.98-.24 1.59-1.17 2.71-2.88 3.5-1.27.58-2.58.7-3.89.35-1.06-.28-1.82-.9-2.15-1.74"/><path class="st10" d="M302.54-10.25l7.27 1.29-5.45 4.99 1.03 7.32-6.43-3.64-6.64 3.23 1.47-7.24-5.13-5.31 7.34-.84 3.47-6.52z"/><path class="st9" d="M32.41 63.61c-.65 0-1.17.52-1.17 1.17v25.57c0 .64.52 1.17 1.17 1.17.64 0 1.17-.53 1.17-1.17V64.78c0-.65-.53-1.17-1.17-1.17m-8.73 0c-.65 0-1.17.52-1.17 1.17v25.57c0 .64.52 1.17 1.17 1.17.65 0 1.17-.53 1.17-1.17V64.78c0-.65-.52-1.17-1.17-1.17m8.73 0c-.65 0-1.17.52-1.17 1.17v25.57c0 .64.52 1.17 1.17 1.17.64 0 1.17-.53 1.17-1.17V64.78c0-.65-.53-1.17-1.17-1.17m-8.73 0c-.65 0-1.17.52-1.17 1.17v25.57c0 .64.52 1.17 1.17 1.17.65 0 1.17-.53 1.17-1.17V64.78c0-.65-.52-1.17-1.17-1.17m18.49-6.31v-2.5c0-4.34-3.75-8-8.18-8-.44 0-.88.04-1.31.11-1.98-2.54-5-4.04-8.24-4.04-2.63 0-5.1.96-7.04 2.72-.46-.07-.93-.1-1.39-.1-5.36 0-10.05 4.35-10.05 9.31v40.03c0 3.21 2.61 5.83 5.83 5.83h24.55c3.21 0 5.83-2.62 5.83-5.83v-3.79c7.99-.63 14.33-7.96 14.33-16.87S50.16 57.94 42.17 57.3m-26.16-9.47c.51 0 1.03.05 1.51.16l.64.15.46-.47a8.07 8.07 0 0 1 5.82-2.46c2.73 0 5.26 1.36 6.77 3.65l.47.71.82-.23c.48-.13.99-.2 1.5-.2 2.76 0 5.15 1.97 5.72 4.5H26.59l-.04 1.12s-.02.41-.02.63a4.025 4.025 0 0 1-4.02 4.03c-.64 0-1.28-.16-1.84-.45-.63-.32-1.35-.3-1.94.06-.58.35-.93.96-.93 1.65v8.2c0 .37-.15.72-.42.99-.27.26-.63.39-1.01.37-.71-.04-1.29-.72-1.29-1.51V53.64H8.41c.67-3.16 3.99-5.81 7.6-5.81m-4.22 50.51c-1.93 0-3.5-1.57-3.5-3.5V55.97h4.45v12.76c0 1.07.42 2.02 1.09 2.72-.02.08-.03.17-.03.26v18.63c0 .64.53 1.17 1.17 1.17.65 0 1.17-.53 1.17-1.17V72.55c.04 0 .08.02.12.02.07.01.13.01.19.01.95 0 1.85-.36 2.54-1.02.73-.69 1.14-1.67 1.14-2.68V61.3c.75.3 1.56.46 2.38.46 3.31 0 6.04-2.54 6.34-5.79h11v38.87c0 1.93-1.57 3.5-3.5 3.5H11.79zm30.38-9.64V59.65c6.71.64 12 6.91 12 14.53 0 7.62-5.29 13.88-12 14.52m-9.76-25.09c-.65 0-1.17.52-1.17 1.17v25.57c0 .64.52 1.17 1.17 1.17.64 0 1.17-.53 1.17-1.17V64.78c0-.65-.53-1.17-1.17-1.17m-8.73 0c-.65 0-1.17.52-1.17 1.17v25.57c0 .64.52 1.17 1.17 1.17.65 0 1.17-.53 1.17-1.17V64.78c0-.65-.52-1.17-1.17-1.17"/><path class="st9" d="M68.17 14.89c2.6-.95 4.11.12 4.41 2.48.55.07 1.11.08 1.64.21 2.16.49 3.39 1.99 4.17 3.94.81 2.03 1.04 4.18 1.11 6.35.14 4.71-.51 9.33-1.45 13.93-.11.54-.37.88-.9 1.11-8.7 3.8-17.39 7.63-26.08 11.44-1.46.64-2.99 1.06-4.57.62-2.35-.65-3.85-2.21-4.53-4.55-.6-2.05-.68-4.15-.56-6.26.23-3.85 1.01-7.59 2.5-11.16 2.02-4.86 4.3-9.59 7.33-13.91.81-1.16 1.78-2.21 2.76-3.24.8-.84 1.82-1.19 3.01-.99.14.02.34-.11.46-.22.52-.46.98-1.02 1.55-1.4.88-.59 1.84-.61 2.74.01.62.42 1.24.51 1.98.44.9-.08 1.82-.02 2.72.07.73.05 1.34.41 1.71 1.13M47.91 53.23c.83.03 1.64-.25 2.43-.6 8.53-3.74 17.05-7.48 25.57-11.24.19-.08.39-.33.43-.53.28-1.43.55-2.86.75-4.3.21-1.44.33-2.89.51-4.47-.44.26-.75.46-1.07.65-.59.35-1.12.26-1.42-.21-.3-.48-.14-1 .43-1.37.56-.35 1.13-.71 1.71-1.03.33-.18.44-.41.43-.78-.06-1.11-.05-2.23-.15-3.34-.13-1.47-.4-2.92-1.05-4.27-.7-1.48-1.78-2.43-3.49-2.46-1.01-.02-1.95.28-2.82.78-1.96 1.12-3.45 2.75-4.83 4.49-2.84 3.58-5.09 7.54-7.31 11.51-2.14 3.85-4.22 7.73-6.43 11.55-1.13 1.93-2.45 3.73-3.69 5.62m10.77-28.3c-.43-.22-.83-.41-1.22-.62-.62-.33-1.26-.63-1.83-1.03-.82-.58-1.11-1.49-.86-2.38.29-1.07.99-1.69 2.05-1.77.44-.03.9 0 1.34.09 1.15.23 2.27.55 3.43.72.43.06.96-.1 1.36-.32.48-.26.42-.57-.06-.82-.22-.12-.47-.18-.7-.28-.5-.21-.72-.66-.58-1.12.16-.51.61-.79 1.14-.62.51.17 1.03.37 1.45.68 1.1.79 1.24 2.12.39 3.17-.74.92-1.74 1.31-2.87 1.2-.98-.09-1.94-.36-2.91-.55-.48-.1-.95-.22-1.42-.29-.32-.05-.67-.06-.81.35-.13.4.19.55.45.7.44.25.9.45 1.35.68.44.24.9.46 1.3.76.89.66 1.06 1.68.5 2.63-.65 1.1-1.7 1.55-3.07 1.2-.97-.25-1.9-.66-2.85-.97-.41-.13-.83-.24-1.26-.26-.17-.01-.44.21-.5.38-.06.16.04.48.18.59.38.29.82.51 1.23.77.72.44 1.48.83 2.14 1.35.98.78 1.16 1.92.61 3.07-.47.99-1.32 1.43-2.56 1.19-.73-.14-1.44-.45-2.15-.68-.65-.21-1.29-.45-1.94-.63-.41-.12-.74.02-.9.46-.16.45-.12.83.33 1.06.41.21.85.38 1.28.56.77.31 1.57.55 2.3.92.96.49 1.33 1.37 1.11 2.29-.27 1.12-1.07 1.82-2.16 1.85-.41.01-.83-.01-1.24-.07-.78-.11-1.56-.26-2.34-.37-.32-.04-.68-.04-.79.38-.11.41.17.61.47.75.7.32 1.42.62 2.12.93 1 .44 1.83 1.02 1.72 2.46.21-.36.32-.56.43-.76 2.09-3.78 4.15-7.57 6.29-11.32 1.78-3.13 3.74-6.16 6.11-8.88 1.62-1.86 3.38-3.54 5.73-4.48.11-.04.22-.23.22-.35-.01-.95-.48-1.3-1.41-1.03-.4.12-.78.29-1.17.42-.31.1-.61.23-.93.28-.78.13-1.3-.44-1.13-1.21.03-.13.07-.26.11-.4-.81-.32-1.6-.21-2.37-.07-1.03.18-1.98.01-2.82-.6-.5-.36-.93-.29-1.3.1-.44.47-.84.98-1.22 1.5-.39.53-.81.69-1.34.38-.62-.37-1.19-.3-1.68.17-.66.63-1.33 1.27-1.89 1.99-2.43 3.15-4.26 6.67-5.97 10.24-1.69 3.53-3.21 7.12-3.83 11.02-.07.43-.12.86-.19 1.29.51-.19.94-.4 1.39-.48.46-.08.94-.02 1.47-.02-.08-.12-.1-.17-.13-.21-.71-.8-.74-1.68-.32-2.61.41-.91 1.14-1.31 2.11-1.31.45 0 .9.04 1.34.1.78.1 1.56.26 2.35.33.17.02.36-.22.54-.35-.12-.15-.21-.38-.36-.44-.54-.23-1.12-.38-1.67-.62-.72-.31-1.48-.6-2.12-1.04-1.04-.72-1.25-1.89-.71-3.19.47-1.13 1.46-1.74 2.68-1.51.82.15 1.62.46 2.42.72.62.2 1.22.44 1.84.62.17.05.48-.01.56-.13.11-.16.13-.46.06-.65-.07-.2-.27-.38-.46-.5-.47-.3-.97-.54-1.45-.83-.62-.39-1.28-.74-1.83-1.22-.69-.6-.88-1.42-.57-2.31.32-.93.9-1.67 1.94-1.7.75-.02 1.53.16 2.26.36.85.23 1.65.61 2.49.88.5.09.99.1 1.3-.59m-12.71 27.4c1.96-2.09 3.34-4.51 4.78-6.93-1.32-1.04-2.66-1.96-4.27-2.39-.29-.08-.6-.1-.9-.11-.56-.02-1 .23-1.22.73-.21.47-.38.97-.48 1.48-.56 2.74-.09 5.19 2.09 7.22"/><path class="st9" d="M59.06 43.85c0 .48.01.97 0 1.45-.02.54-.42.94-.91.95-.49.01-.91-.4-.92-.93-.02-.99-.02-1.97 0-2.96.01-.53.44-.93.93-.92.5.02.88.42.9.95.01.49 0 .97 0 1.46M65.35 35.77c.73.1 1.21.67 1 1.27-.29.83-.62 1.64-.99 2.44-.22.48-.74.63-1.18.43-.45-.21-.67-.67-.48-1.16.28-.77.57-1.55.93-2.29.13-.29.48-.47.72-.69M69.81 30.27c-.68.01-2.78-1.38-2.83-1.82-.04-.31.04-.78.25-.95.23-.19.75-.28 1.01-.15.69.37 1.33.85 1.95 1.33.32.25.45.65.23 1.01-.19.27-.49.46-.61.58M71.15 40c-.32 0-.65.02-.97 0-.55-.04-.94-.44-.93-.93.01-.51.39-.9.94-.91.67-.02 1.33-.02 2 0 .52.02.89.4.9.89a.92.92 0 0 1-.81.93c-.37.04-.75.01-1.13.01V40zM72.36 21.73c.14.13.51.32.64.61.27.62.45 1.28.62 1.94.13.49-.17.96-.64 1.1-.44.13-.94-.07-1.1-.53-.24-.65-.45-1.32-.6-2-.14-.59.3-1.1 1.08-1.12M299.74 11.38c2.6-.95 4.11.12 4.42 2.48.55.07 1.11.08 1.64.21 2.16.49 3.39 1.99 4.17 3.94.81 2.03 1.04 4.18 1.11 6.35.14 4.71-.52 9.33-1.45 13.93-.11.54-.38.88-.9 1.11-8.7 3.8-17.39 7.63-26.08 11.44-1.46.64-2.99 1.06-4.57.62-2.35-.65-3.85-2.21-4.53-4.55-.6-2.05-.68-4.15-.56-6.26.23-3.85 1.01-7.59 2.5-11.16 2.02-4.86 4.3-9.59 7.33-13.91.81-1.16 1.78-2.21 2.76-3.24.8-.84 1.82-1.19 3.01-.99.14.02.34-.11.46-.22.52-.46.98-1.02 1.55-1.4.88-.59 1.84-.61 2.74.01.62.42 1.24.51 1.98.44.9-.08 1.82-.02 2.72.07.73.05 1.33.42 1.7 1.13m-20.26 38.34c.83.03 1.64-.25 2.43-.6 8.53-3.74 17.05-7.48 25.57-11.24.19-.08.39-.33.43-.53.28-1.43.55-2.86.75-4.3.21-1.44.33-2.89.51-4.47-.44.26-.75.46-1.07.65-.59.35-1.12.26-1.42-.21-.3-.48-.14-1 .43-1.37.56-.35 1.13-.71 1.71-1.03.33-.18.44-.41.42-.78-.06-1.11-.05-2.23-.15-3.34-.13-1.47-.4-2.92-1.05-4.27-.7-1.48-1.78-2.43-3.49-2.46-1.01-.02-1.95.28-2.82.78-1.96 1.12-3.45 2.75-4.83 4.49-2.84 3.58-5.09 7.54-7.31 11.51-2.14 3.85-4.22 7.73-6.43 11.55-1.12 1.93-2.43 3.73-3.68 5.62m10.77-28.29c-.43-.22-.83-.41-1.22-.62-.61-.33-1.26-.63-1.83-1.03-.82-.58-1.1-1.49-.86-2.38.3-1.07.99-1.69 2.05-1.77.44-.03.9 0 1.34.09 1.15.23 2.27.55 3.43.72.43.06.96-.1 1.36-.32.48-.26.42-.57-.06-.82-.22-.12-.47-.18-.7-.28-.5-.21-.73-.66-.58-1.12.16-.51.61-.79 1.14-.62.51.17 1.03.37 1.45.68 1.1.79 1.24 2.12.39 3.17-.74.91-1.74 1.31-2.87 1.2-.98-.09-1.94-.36-2.91-.55-.48-.1-.94-.22-1.42-.29-.32-.05-.67-.06-.8.35-.13.4.19.55.45.7.44.25.9.45 1.35.68.44.24.9.46 1.3.76.89.66 1.06 1.68.5 2.63-.65 1.1-1.7 1.55-3.07 1.2-.97-.25-1.9-.66-2.85-.97-.41-.13-.83-.24-1.26-.26-.17-.01-.44.21-.5.38-.06.16.04.48.18.59.38.29.82.51 1.24.77.72.44 1.48.83 2.14 1.35.98.78 1.16 1.92.61 3.07-.47.99-1.32 1.43-2.56 1.19-.73-.14-1.44-.45-2.15-.68-.65-.21-1.29-.45-1.94-.63-.41-.12-.74.02-.9.46-.16.45-.12.83.33 1.06.41.21.85.38 1.28.56.77.31 1.57.55 2.3.92.96.49 1.33 1.37 1.11 2.29-.27 1.11-1.07 1.82-2.16 1.85-.41.01-.83-.01-1.24-.07-.78-.11-1.56-.26-2.34-.37-.32-.04-.68-.04-.79.38-.11.41.17.61.47.75.7.32 1.42.62 2.12.93 1 .44 1.83 1.01 1.71 2.46.21-.36.32-.56.43-.76 2.09-3.78 4.15-7.57 6.29-11.32 1.78-3.13 3.74-6.16 6.11-8.88 1.62-1.86 3.38-3.54 5.73-4.48.11-.04.22-.23.22-.35-.01-.95-.48-1.3-1.41-1.03-.4.12-.78.29-1.17.42-.31.1-.61.23-.93.28-.78.13-1.3-.44-1.13-1.21.03-.13.07-.26.11-.4-.81-.32-1.6-.21-2.37-.07-1.03.18-1.98.01-2.82-.6-.5-.36-.93-.29-1.3.1-.44.46-.84.98-1.22 1.5-.39.53-.81.69-1.34.38-.62-.37-1.19-.3-1.68.17-.66.63-1.33 1.27-1.89 1.99-2.43 3.15-4.26 6.67-5.97 10.24-1.69 3.53-3.21 7.12-3.83 11.02-.07.43-.12.86-.19 1.29.51-.19.94-.4 1.39-.48.46-.08.94-.02 1.47-.02-.08-.12-.1-.17-.13-.21-.72-.8-.74-1.68-.32-2.61.41-.91 1.14-1.31 2.11-1.31.45 0 .9.04 1.34.1.78.1 1.56.26 2.35.33.17.02.36-.22.54-.35-.12-.15-.21-.38-.36-.44-.54-.23-1.12-.38-1.67-.62-.72-.31-1.48-.6-2.12-1.04-1.04-.72-1.25-1.89-.71-3.19.47-1.13 1.46-1.73 2.68-1.51.82.15 1.62.46 2.42.72.62.2 1.22.44 1.84.61.17.05.48-.01.56-.13.11-.16.13-.46.06-.65-.07-.2-.27-.38-.46-.5-.47-.3-.97-.54-1.45-.83-.62-.39-1.28-.74-1.83-1.22-.69-.6-.88-1.42-.57-2.31.32-.93.9-1.67 1.94-1.7.75-.02 1.53.16 2.26.36.85.23 1.65.61 2.49.88.49.09.98.1 1.29-.58m-12.71 27.4c1.96-2.09 3.34-4.51 4.78-6.93-1.32-1.04-2.66-1.96-4.28-2.39-.29-.08-.6-.1-.9-.11-.56-.02-1 .23-1.22.73-.21.47-.38.97-.48 1.48-.54 2.73-.08 5.18 2.1 7.22"/><path class="st9" d="M290.63 40.34c0 .48.01.97 0 1.45-.02.54-.42.94-.91.95-.49.01-.91-.39-.92-.93-.02-.99-.02-1.97 0-2.96.01-.53.44-.93.93-.92.5.02.88.42.9.95.01.49 0 .98 0 1.46M296.92 32.26c.73.1 1.21.67 1 1.27-.29.83-.63 1.64-.99 2.44-.22.48-.74.63-1.18.43-.45-.21-.67-.67-.48-1.16.28-.77.57-1.55.93-2.29.13-.28.48-.46.72-.69M301.38 26.76c-.68.01-2.78-1.38-2.83-1.82-.04-.31.04-.78.25-.95.23-.19.75-.28 1.01-.15.69.37 1.33.85 1.95 1.33.32.25.45.65.23 1.01-.19.28-.49.47-.61.58M302.72 36.49c-.32 0-.65.02-.97 0-.55-.04-.94-.44-.93-.93.01-.51.39-.89.94-.91.67-.02 1.33-.02 2 0 .52.02.89.4.9.89a.92.92 0 0 1-.81.93c-.37.04-.75.01-1.13.01v.01zM303.93 18.23c.14.13.51.32.64.61.27.62.45 1.28.62 1.94.13.49-.17.96-.64 1.1-.44.13-.94-.07-1.1-.53-.24-.65-.45-1.32-.6-2-.14-.6.3-1.11 1.08-1.12M12.44 11.65c1.33 0 2.09 1.14 2.09 1.14.04.06 4.13 5.97 9.79 6.66.36.04.72.07 1.08.07 2.3 0 4.59-.92 6.82-2.73 0 0 .9-.43 1.66-.43.25 0 .48.04.66.16.93.59 1.18 1.66 1.3 2.53.21 1.51.58 4.79.94 8.62.02.26.05.52.07.78 0 .06 0 .11.01.17l.02 1.72.02 1.5c.04.5.06.92.06 1.28-.02 2.42-1.16 4.12-3.82 4.53-.77.12-1.72.17-2.92.17-1.13 0-2.49-.05-4.13-.16a55.45 55.45 0 0 0-3.56-.12h-.38c-.89.01-5.99.41-6.88.52-.47.06-10.68 1.15-13.34 1.15h-.06c-8.82 0-12.99-.65-17.3-2.24-8.17-3.02-5.51-12.89-.32-13.92.67-.13 1.45-.17 2.39-.26 1.13-.11 7.13-1.62 7.92-1.93.23.62.62 1.42 1.49 2.13.13.1.02.02.16.12.24.16.51.32.81.46a.968.968 0 0 0 1.28-.45c.09-.18.11-.36.09-.54-.01-.1-.04-.2-.09-.29a.96.96 0 0 0-.44-.45c-1.22-.59-1.36-1.23-1.53-1.72.42-.18.84-.36 1.26-.55.27.74.84 1.75 2.1 2.55.1.06.22.13.33.19.11.06.23.13.34.18.13.06.28.1.42.1.35 0 .7-.2.86-.54.06-.13.09-.28.09-.42 0-.11-.02-.22-.06-.32a.89.89 0 0 0-.48-.53c-1.33-.65-1.74-1.57-1.86-2.04.34-.17.68-.33 1-.5.3.78.93 1.83 2.29 2.62.12.07.25.14.38.21.02.01.05.03.07.04a.968.968 0 0 0 1.28-.45c.05-.1.08-.2.1-.31.01-.15 0-.3-.05-.43a.943.943 0 0 0-.48-.54c-1.33-.65-1.75-1.58-1.87-2.04.15-.08.3-.17.46-.25.2-.1.39-.21.59-.32.38.79 1.11 1.74 2.51 2.44.02.02.05.02.07.04a.974.974 0 0 0 .75.03h.01c.09-.03.18-.08.27-.15.1-.08.18-.19.25-.32.08-.16.1-.33.09-.5a.937.937 0 0 0-.54-.78c-1.03-.5-1.51-1.17-1.73-1.67.36-.2.71-.39 1.06-.58.42.73 1.15 1.53 2.4 2.13.02.01.06.03.09.04.1.04.22.06.32.06.35 0 .7-.2.86-.54a.91.91 0 0 0 .09-.42c0-.35-.2-.69-.54-.85-.82-.4-1.56-1.34-1.56-1.34l3.01-1.96c.74-.56 1.38-.75 1.93-.75M-4.74 25.24c-2.12 0-3.15-.85-3.86-1.52-1.84.54-3.41.87-4.57.97-.87.08-1.59.15-2.21.24.53.42 1.73 3.3 4.49 3.34 4.98.08 11.02-.29 12.8 5.17.21.01.42.01.64.02h.16c.49 0 1.21-.04 2.06-.1l-5.21-7.7 1.89-.96 5.88 8.45c.67-.05 1.37-.12 2.05-.19l-6.44-9.03 1.89-.96 7.07 9.73c.62-.06 1.19-.12 1.68-.18L6.2 22.29l1.89-.96 7.99 10.94c.45-.04 1.05-.1 1.71-.15L9.5 20.61l1.89-.96 8.97 12.27c.92-.07 1.67-.11 1.99-.12h.38c1.16 0 2.35.04 3.62.12 1.58.11 2.86.16 3.92.16.42 0 .81-.01 1.16-.03 3.29-1.95 2.62-10.87 1.62-13.32-2.46 1.83-5.03 2.75-7.65 2.75-.46 0-.93-.03-1.4-.08-4.57-.57-8.11-3.77-9.95-5.83l-2.34 1.77c-.29.23-7.74 6.11-13.93 7.57-.97.24-1.81.33-2.52.33M1.87 37.3h.06c2.52 0 12.66-1.08 13.11-1.13.86-.1 6.09-.52 7.1-.53h.43c1.17 0 2.37.04 3.65.12 1.61.11 2.93.16 4.02.16 1.09 0 1.94-.05 2.62-.16 1.9-.29 2.17-1.36 2.19-2.52-.52.27-1.14.45-1.89.57-.76.12-1.69.18-2.87.18-1.11 0-2.44-.05-4.05-.16-1.23-.08-2.37-.12-3.49-.12h-.37c-.87.01-5.87.41-6.75.52-.09.01-9.88 1.15-12.88 1.15-.08 0-.17-.01-.24-.01-12.12-.31-14.35-1.22-18.39-2.89l-.2-.08c-.98-.41-1.74-.87-2.34-1.35.6 1.51 1.76 3.37 3.72 4.14 4 1.6 8.03 2.11 16.57 2.11M12.44 9.95c-.98 0-1.95.35-2.89 1.05l-2.97 1.93-.17.11-1.39.75c-.16.09-.33.18-.5.27-.18.1-.37.2-.56.31l-.12.07-.14.08-1.1.6v.01l-.31.17c-.19.11-.38.21-.56.3l-.01.01H1.7l-.46.25-.31.17-1.37.71c-.31.16-.64.32-.97.49l-1.06.52-.64.29c-.33.15-.66.29-1 .44l-.24.1-.76.33-.95.37c-.76.29-6.56 1.73-7.46 1.82-.2.02-.41.03-.61.05-.69.06-1.34.11-1.95.23-3.3.65-5.92 3.98-6.23 7.9-.34 4.24 2.02 7.71 6.29 9.29 4.77 1.76 9.28 2.35 17.89 2.35h.06c2.78 0 13.07-1.1 13.55-1.16.84-.1 5.86-.5 6.68-.5h.37c1.11 0 2.24.04 3.45.12 1.7.11 3.09.16 4.24.16 1.27 0 2.31-.06 3.17-.19 3.32-.51 5.24-2.77 5.27-6.2 0-.42-.02-.87-.06-1.38l-.02-1.43-.02-1.72v-.07l-.01-.06c0-.05 0-.1-.01-.16l-.03-.28-.05-.52c-.36-3.86-.74-7.15-.95-8.69-.1-.73-.38-2.66-2.07-3.74-.44-.28-.97-.43-1.57-.43-1.09 0-2.18.5-2.39.59l-.18.09-.16.13c-1.92 1.56-3.85 2.35-5.75 2.35-.29 0-.58-.02-.87-.05-4.74-.58-8.45-5.73-8.6-5.95-.22-.33-1.41-1.88-3.48-1.88m.34 8.73l1.09-.83c2.12 2.08 5.58 4.71 9.92 5.25.56.07 1.09.1 1.61.1 2.24 0 4.45-.58 6.57-1.74.43 3.03.22 7.59-1.13 8.92-.18 0-.38.01-.58.01-1.01 0-2.25-.05-3.81-.15-1.3-.09-2.53-.13-3.74-.13h-.4c-.24 0-.65.02-1.16.06l-8.37-11.49zm-24.73 7.57c.86-.14 1.84-.36 2.94-.65.56.42 1.23.81 2.09 1.05-.99-.05-1.96-.06-2.86-.07-.36 0-.72-.01-1.07-.01-.42 0-.78-.12-1.1-.32m7.72.68c.73-.04 1.52-.15 2.35-.34l.02.03.83 1.22c-1-.44-2.09-.73-3.2-.91M7.94 9.14c3.99-1.83 5.99-4.88 5.92-9.06-.06-3.79-.05-7.64-.04-11.37.01-1.63.01-3.26.01-4.89 0-1.2.39-1.73 1.55-2.1.56-.18 1.13-.35 1.69-.53l4.36-1.37c3.66-1.15 7.45-2.33 11.17-3.49.34-.1.52-.11.6-.11.03.07.07.25.07.6v12.55c-4.38-1.11-9.66.8-12.17 4.54-1.32 1.97-1.69 4.13-1.03 6.1.65 1.95 2.23 3.44 4.43 4.2 3 1.04 6.03.78 9-.77 3.68-1.92 5.44-4.79 5.39-8.78-.08-6.5-.06-13.11-.05-19.51.01-2.65.01-5.31.01-7.96V-33c0-.3 0-.6-.03-.93-.18-2.07-1.63-3.58-3.62-3.76-.93-.08-1.79.1-2.35.27-6.96 2.1-13.29 4.04-19.37 5.92-3.29 1.02-5.25 3.72-5.25 7.22v18.89c-4.38-.9-9.48 1.14-11.9 4.95-1.29 2.02-1.58 4.3-.82 6.26.76 1.94 2.52 3.4 4.82 4.01.96.25 1.92.38 2.87.38 1.61-.01 3.19-.36 4.74-1.07M-2.57 5.06c-.32-.82-.36-1.72-.13-2.64.15-.59.4-1.18.77-1.76 1.65-2.59 4.94-4.2 8.07-4.2.96 0 1.9.15 2.78.47.32.12.67.07.95-.12.28-.19.44-.51.44-.85v-20.25c0-2.59 1.38-4.51 3.8-5.25 6.07-1.88 12.4-3.82 19.36-5.92.54-.16 1.1-.23 1.57-.19 1.01.09 1.66.8 1.76 1.89.02.23.02.48.02.74v.2c0 2.65-.01 5.3-.01 7.96-.01 6.4-.03 13.02.05 19.53.01.53-.03 1.03-.1 1.51-.36 2.39-1.72 4.13-4.18 5.42-2.45 1.28-4.93 1.5-7.37.65C23.62 1.7 22.5.67 22.06-.66c-.26-.77-.28-1.6-.06-2.44.16-.62.44-1.25.85-1.85 2.16-3.21 7.06-4.79 10.69-3.46l.41.15c.31.11.65.07.92-.11.13-.11.25-.26.33-.43.05-.12.09-.24.1-.37 0-.09.01-.18.01-.26.01-.2.02-.38.02-.55v-13.19c0-.4 0-1.61-.9-2.27-.9-.66-2.06-.31-2.44-.19-3.73 1.15-7.52 2.34-11.18 3.49l-4.36 1.37c-.56.18-1.13.35-1.69.53-.73.23-1.32.55-1.78.97-.81.73-1.21 1.76-1.21 3.1 0 1.63-.01 3.25-.01 4.88-.01 3.74-.03 7.61.04 11.42.01.55-.03 1.07-.1 1.56-.4 2.52-1.89 4.32-4.62 5.57-2.03.93-4.12 1.12-6.22.57-1.68-.44-2.9-1.43-3.43-2.77"/><path class="st10" d="M74.01-16.97l13.83 2.45-10.35 9.48 1.94 13.91-12.22-6.92L54.59 8.1l2.8-13.76-9.75-10.1 13.95-1.59 6.6-12.4z"/><path class="st11" d="M-6-11.01h308.91v156.87H-6z"/><path class="st11" d="M-6-11.01h308.91v156.87H-6z"/></g></g></g><g id="Layer_2"><path class="st12" d="M25.54 8.88l5.98 17.23H27.8l-1.24-3.72h-6.82l-1.29 3.72h-3.53l6.22-17.23h4.4zm.09 10.73l-2.38-7.34-2.55 7.34h4.93zM34.86 8.9h3.77v14.28h7.39v2.93H34.86V8.9zM53.07 8.93v10.49c0 1.88.14 4.24 3.74 4.24.6 0 2.38-.02 3.34-1.5.36-.52.55-1.19.55-2.93V8.93h3.6v10.75c0 5.12-4.08 6.77-7.56 6.77-1.72 0-4.86-.38-6.48-2.98-.83-1.31-.88-2.65-.88-4.24V8.93h3.69zM68.82 8.88h6.03l3.65 12.54 3.93-12.54h5.86v17.23h-3.67V11.34l-4.7 14.78h-3.05l-4.6-14.78v14.78h-3.46V8.88zM92.8 8.88h5.34l6.46 13.56V8.88h3.43v17.23h-5.08l-6.67-14.3v14.3H92.8V8.88zM112.25 8.83h3.69v17.28h-3.69V8.83zM127.65 8.95l2.67 12.89 3.36-12.89h4.17l3.03 12.89 2.79-12.89h3.53l-4.39 17.21h-4.1L135.59 13l-3.36 13.16h-4.19l-4.19-17.21h3.8zM150.27 8.88h11.54v2.81h-7.84v4.1h7.34v2.81h-7.34v4.65h8.1v2.86h-11.8V8.88zM166.03 8.88h11.54v2.81h-7.84v4.1h7.34v2.81h-7.34v4.65h8.1v2.86h-11.8V8.88zM181.62 8.93h3.69v7.41l5.77-7.46h4.31l-6.32 7.72 6.86 9.51h-4.6l-6.03-8.77v8.77h-3.69V8.93zM198.87 8.88h11.54v2.81h-7.84v4.1h7.34v2.81h-7.34v4.65h8.1v2.86h-11.8V8.88zM214.58 8.88h5.34l6.46 13.56V8.88h3.43v17.23h-5.08l-6.67-14.3v14.3h-3.48V8.88zM234.15 8.93l5.7.02c.95 0 3.86.02 5.93 1.55 2.17 1.6 2.93 4.31 2.93 6.77 0 5.29-2.84 8.06-6.1 8.65-.64.12-1.36.19-3.1.19h-5.36V8.93zm3.74 14.35c.41.02 1.03.05 1.45.05 1.57 0 2.93-.12 4-1.19 1.45-1.45 1.55-4.03 1.55-4.86 0-2.43-.83-4.67-3.15-5.32-.76-.21-1.74-.33-3.86-.24v11.56z"/><path class="st13" d="M280.35 10.37h-7.87l9.16 15.88-9.16 15.87h7.87l9.17-15.87z"/><g><path class="st13" d="M14.44 33.61h4.2v.83h-3.2v2.2h3.02v.82h-3.02v3.2h-1v-7.05zM21.73 33.61h2.52c.36 0 1.1 0 1.62.33.53.33.78.87.78 1.44 0 .5-.19.94-.5 1.25-.3.3-.62.4-.83.46.67.18.98.48 1.07 1.36.1.83.17 1.44.44 2.22h-1.04c-.16-.47-.25-1.33-.32-1.87-.12-1.03-.36-1.32-1.54-1.32H22.7v3.18h-.97v-7.05zm.95 3.04h1.54c.11 0 .66 0 .93-.16.14-.08.48-.33.48-.92 0-1.14-1.02-1.14-1.41-1.14h-1.54v2.22zM30.22 33.61h.98v7.05h-.98v-7.05zM34.89 33.61h2.04c.95 0 2.06 0 2.84.92.62.73.87 1.7.87 2.67 0 1.52-.63 2.46-1.17 2.89-.69.58-1.56.58-2.6.58h-1.98v-7.06zm.98 6.25h.96c.67 0 1.38-.04 1.85-.39.9-.67.93-1.83.93-2.24 0-.26-.02-1.46-.68-2.2-.45-.5-1.02-.62-1.88-.62h-1.17v5.45zM45.9 33.61h1.04l2.85 7.05h-1.06l-.76-1.84H44.7l-.76 1.84h-1.01l2.97-7.05zm-.89 4.43h2.67l-1.3-3.46-1.37 3.46zM53.54 37.89l-2.75-4.28H52l2.08 3.46 2.11-3.46h1.09l-2.75 4.33v2.72h-.99v-2.77zM63.86 37.7h4.88v.7h-4.88v-.7zM76.93 38.6c.02.49.08 1.4 1.7 1.4 1.46 0 1.65-.91 1.65-1.26 0-.79-.63-.95-1.62-1.19-1.07-.26-1.55-.38-1.91-.62-.58-.39-.73-.92-.73-1.39 0-1.44 1.36-2.06 2.69-2.06.47 0 1.42.08 1.98.69.39.43.41.91.43 1.2H80.1c-.05-.88-.79-1.07-1.48-1.07-.98 0-1.56.44-1.56 1.14 0 .62.41.84 1.27 1.04 1.68.43 1.87.47 2.28.74.65.43.7 1.11.7 1.41 0 1.25-.98 2.2-2.78 2.2-.54 0-1.63-.09-2.19-.8-.4-.52-.41-1.08-.41-1.43h1zM85.72 33.61v4.37c0 .75.17 1.06.31 1.27.44.59 1.12.69 1.61.69 1.9 0 1.9-1.49 1.9-2v-4.33h.95v4.35c0 .38-.01 1.17-.58 1.88-.69.87-1.77.98-2.28.98-.66 0-1.84-.19-2.49-1.12-.21-.31-.41-.72-.41-1.78v-4.3h.99zM94.32 33.61h1.36l3.47 5.83v-5.83h.9v7.05H98.8l-3.58-5.99v5.99h-.89v-7.05zM103.8 33.61h2.04c.95 0 2.06 0 2.84.92.62.73.87 1.7.87 2.67 0 1.52-.63 2.46-1.17 2.89-.69.58-1.56.58-2.6.58h-1.98v-7.06zm.98 6.25h.96c.67 0 1.38-.04 1.85-.39.9-.67.93-1.83.93-2.24 0-.26-.02-1.46-.68-2.2-.45-.5-1.02-.62-1.88-.62h-1.17v5.45zM114.81 33.61h1.04l2.85 7.05h-1.06l-.76-1.84h-3.27l-.76 1.84h-1.01l2.97-7.05zm-.89 4.43h2.67l-1.3-3.46-1.37 3.46zM122.46 37.89l-2.75-4.28h1.21l2.08 3.46 2.11-3.46h1.09l-2.75 4.33v2.72h-.99v-2.77zM128.78 39.49l-1.09 2.4h-.66l.62-2.4h1.13zM138.45 33.61h1.04l2.85 7.05h-1.06l-.76-1.84h-3.27l-.76 1.84h-1.01l2.97-7.05zm-.89 4.43h2.67l-1.3-3.46-1.37 3.46zM145.25 33.61h2.36c.86 0 1.45.05 1.92.57.35.36.52.84.52 1.37 0 .54-.18 1-.56 1.38-.37.37-.86.61-2.13.61h-1.14v3.13h-.98v-7.06zm.98 3.1h1.16c.64 0 1.63-.05 1.63-1.2 0-1.1-.92-1.1-1.43-1.1h-1.37v2.3zM153.16 33.61h2.52c.36 0 1.1 0 1.62.33.53.33.78.87.78 1.44 0 .5-.19.94-.5 1.25-.3.3-.62.4-.83.46.67.18.98.48 1.07 1.36.1.83.17 1.44.44 2.22h-1.04c-.16-.47-.25-1.33-.32-1.87-.12-1.03-.36-1.32-1.54-1.32h-1.23v3.18h-.97v-7.05zm.94 3.04h1.54c.11 0 .66 0 .93-.16.14-.08.48-.33.48-.92 0-1.14-1.02-1.14-1.41-1.14h-1.54v2.22zM161.64 33.61h.98v7.05h-.98v-7.05zM166.36 33.61h.97v6.18h3.28v.87h-4.25v-7.05zM178.02 39.77l1.77-1.74c.37-.36.74-.75 1.04-1.16.39-.54.5-.84.5-1.2 0-.33-.12-1.1-1.08-1.1-1.08 0-1.1.93-1.1 1.18h-1.03c.01-.33.04-.98.62-1.48.47-.4 1.04-.49 1.46-.49 1.04 0 2.09.53 2.09 1.97 0 .43-.03.76-.76 1.69-.2.24-1.05 1.13-1.25 1.33l-1.18 1.12h3.21v.77h-4.3v-.89zM188.87 35.51c-.01-.79-.6-1.01-1.03-1.01-.98 0-1.41.84-1.49 2.64.21-.31.59-.86 1.57-.86 1.1 0 2.04.73 2.04 2.17 0 1.57-1.12 2.36-2.29 2.36-.65 0-1.31-.26-1.67-.73-.5-.66-.62-1.63-.62-2.49 0-1.47.36-3.82 2.5-3.82.89 0 1.39.39 1.62.64.34.4.35.83.36 1.09h-.99zm.15 3.02c0-.48-.14-1.5-1.26-1.5-.91 0-1.35.74-1.35 1.51 0 .88.55 1.52 1.3 1.52.61.01 1.31-.42 1.31-1.53zM192.68 37.72h2.45v.74h-2.45v-.74zM198 39.77l1.77-1.74c.37-.36.74-.75 1.04-1.16.39-.54.5-.84.5-1.2 0-.33-.12-1.1-1.08-1.1-1.08 0-1.1.93-1.1 1.18h-1.03c.01-.33.04-.98.62-1.48.47-.4 1.04-.49 1.46-.49 1.04 0 2.09.53 2.09 1.97 0 .43-.03.76-.76 1.69-.2.24-1.05 1.13-1.25 1.33l-1.18 1.12h3.21v.77H198v-.89zM205.36 35.59c0-.61.41-1.85 2.19-1.85 1.43 0 2.25.77 2.25 1.81 0 .66-.43 1.36-1.38 1.53.4.11 1.47.4 1.47 1.71 0 .93-.64 1.98-2.32 1.98-.58 0-1.26-.12-1.75-.57-.36-.33-.6-.84-.6-1.36 0-.45.18-.92.52-1.24.32-.32.67-.42.98-.52-.9-.18-1.36-.81-1.36-1.49zm2.21 4.42c1.08 0 1.35-.76 1.35-1.27 0-.75-.56-1.24-1.33-1.24-.83 0-1.38.56-1.38 1.27 0 .53.35 1.24 1.36 1.24zm.02-5.54c-.72 0-1.28.43-1.28 1.1 0 .65.55 1.09 1.25 1.09.74 0 1.3-.43 1.3-1.09 0-.61-.46-1.1-1.27-1.1zM214.49 39.49l-1.09 2.4h-.66l.62-2.4h1.13zM222.11 39.77l1.77-1.74c.37-.36.74-.75 1.04-1.16.39-.54.5-.84.5-1.2 0-.33-.12-1.1-1.08-1.1-1.08 0-1.1.93-1.1 1.18h-1.03c.01-.33.04-.98.62-1.48.47-.4 1.04-.49 1.46-.49 1.04 0 2.09.53 2.09 1.97 0 .43-.03.76-.76 1.69-.2.24-1.05 1.13-1.25 1.33l-1.18 1.12h3.21v.77h-4.3v-.89zM231.67 33.77c2.02 0 2.27 2.17 2.27 3.44 0 1.6-.32 2.5-.94 3.08-.48.45-1.04.52-1.35.52-.9 0-1.51-.53-1.81-1.12-.22-.45-.44-1.1-.44-2.31 0-1.02.12-3.61 2.27-3.61zm-.01 6.22c1.13 0 1.33-1.48 1.33-2.7 0-1.62-.28-2.74-1.31-2.74-1.18 0-1.34 1.55-1.34 2.76 0 1.51.29 2.68 1.32 2.68zM238.47 34.97c-.42.35-1.09.75-1.57.98v-.98c.63-.33 1.26-.74 1.64-1.06h.87v6.76h-.94v-5.7zM244.09 39.05c0 .59.32 1 1.08 1 1.48 0 1.49-1.75 1.45-2.8-.35.66-.99.85-1.51.85-1.07 0-2.06-.72-2.06-2.14 0-1.55 1.1-2.18 2.17-2.18.72 0 1.79.29 2.18 1.66.12.41.2.9.2 1.82 0 1-.01 3.56-2.49 3.56-.92 0-1.99-.36-2.03-1.77h1.01zm1.13-4.54c-.79 0-1.21.65-1.21 1.46 0 .88.54 1.39 1.28 1.39.76 0 1.23-.57 1.23-1.38-.01-.98-.64-1.47-1.3-1.47z"/></g></g></svg>