<svg xmlns="http://www.w3.org/2000/svg" width="300" height="50" viewBox="0 0 300 50"><path fill="#18599B" d="M300 40c0 5.522-4.478 10-10 10H10C4.477 50 0 45.522 0 40V10C0 4.477 4.477 0 10 0h280c5.522 0 10 4.477 10 10v30z"/><path fill="#F7BF0F" d="M74.75 0H10C4.477 0 0 4.477 0 10v30c0 5.522 4.477 10 10 10h64.75V0z"/><g><path fill="#FFF" d="M280.26 7.61h-8.75l10.183 17.64-10.184 17.64h8.75l10.183-17.64z"/><g fill="#FFF"><path d="M89.756 18.51c0-.498-.175-.88-.526-1.145-.35-.266-.982-.546-1.894-.84-.91-.296-1.633-.587-2.165-.873-1.448-.783-2.173-1.838-2.173-3.164 0-.69.194-1.305.583-1.845.39-.54.946-.962 1.674-1.266s1.544-.456 2.45-.456c.912 0 1.724.166 2.437.496.714.33 1.268.796 1.662 1.398.394.602.59 1.286.59 2.05h-2.628c0-.583-.184-1.038-.552-1.362-.368-.324-.885-.486-1.55-.486-.644 0-1.144.136-1.5.408-.356.27-.535.63-.535 1.074 0 .415.21.762.627 1.043.417.28 1.033.544 1.845.79 1.495.45 2.584 1.008 3.268 1.674.684.666 1.025 1.496 1.025 2.49 0 1.103-.417 1.97-1.253 2.598-.836.628-1.96.942-3.375.942-.98 0-1.875-.18-2.682-.54-.806-.358-1.42-.85-1.845-1.476-.424-.625-.635-1.35-.635-2.174h2.638c0 1.408.843 2.112 2.525 2.112.625 0 1.113-.127 1.464-.38.35-.256.526-.61.526-1.067zM103.832 9.096V17.5c0 1.397-.437 2.502-1.31 3.314-.874.812-2.067 1.218-3.58 1.218-1.49 0-2.674-.395-3.55-1.183-.877-.79-1.324-1.874-1.342-3.253v-8.5h2.63v8.422c0 .834.2 1.444.6 1.826.4.383.954.574 1.66.574 1.48 0 2.23-.777 2.253-2.332V9.096h2.64zM105.988 21.857V9.097h4.47c1.548 0 2.723.296 3.523.89.8.592 1.202 1.46 1.202 2.606 0 .625-.16 1.176-.482 1.652a2.78 2.78 0 0 1-1.34 1.047c.653.164 1.17.494 1.546.99s.565 1.104.565 1.823c0 1.227-.39 2.156-1.173 2.787-.783.63-1.9.952-3.348.964h-4.962zm2.63-7.415h1.945c1.327-.023 1.99-.552 1.99-1.586 0-.58-.168-.995-.504-1.25-.337-.253-.868-.38-1.592-.38h-1.84v3.216zm0 1.858v3.444h2.25c.62 0 1.104-.147 1.452-.442s.52-.703.52-1.223c0-1.17-.603-1.763-1.813-1.78h-2.41zM124.06 18.51c0-.498-.174-.88-.525-1.145-.35-.266-.982-.546-1.894-.84-.91-.296-1.632-.587-2.164-.873-1.45-.783-2.174-1.838-2.174-3.164 0-.69.194-1.305.583-1.845.39-.54.946-.962 1.674-1.266s1.543-.456 2.45-.456c.91 0 1.723.166 2.436.496.713.33 1.267.796 1.66 1.398.395.602.592 1.286.592 2.05h-2.63c0-.583-.183-1.038-.55-1.362-.37-.324-.886-.486-1.552-.486-.643 0-1.143.136-1.5.408-.355.27-.534.63-.534 1.074 0 .415.21.762.627 1.043.416.28 1.032.544 1.844.79 1.496.45 2.585 1.008 3.27 1.674.683.666 1.024 1.496 1.024 2.49 0 1.103-.417 1.97-1.253 2.598-.836.628-1.96.942-3.375.942-.98 0-1.875-.18-2.682-.54-.806-.358-1.42-.85-1.845-1.476-.424-.625-.635-1.35-.635-2.174h2.638c0 1.408.842 2.112 2.524 2.112.625 0 1.113-.127 1.464-.38.35-.256.527-.61.527-1.067zM138.496 17.606c-.1 1.374-.606 2.454-1.52 3.243-.916.788-2.12 1.182-3.617 1.182-1.637 0-2.924-.55-3.86-1.652-.94-1.1-1.408-2.613-1.408-4.536v-.78c0-1.227.216-2.308.648-3.243.432-.934 1.05-1.65 1.854-2.15s1.737-.75 2.8-.75c1.473 0 2.66.394 3.56 1.182.898.79 1.42 1.896 1.56 3.322h-2.63c-.064-.824-.293-1.42-.688-1.792s-.995-.557-1.8-.557c-.877 0-1.533.314-1.968.942-.436.628-.66 1.603-.67 2.923v.964c0 1.38.208 2.387.626 3.024.417.637 1.077.955 1.976.955.812 0 1.418-.185 1.82-.556s.628-.945.687-1.723h2.63zM144.946 17.186h-2.095v4.67h-2.628V9.097h4.742c1.508 0 2.67.336 3.488 1.008.818.672 1.227 1.622 1.227 2.85 0 .87-.19 1.596-.566 2.177-.376.582-.948 1.045-1.713 1.39l2.762 5.215v.123h-2.822l-2.394-4.672zm-2.094-2.13h2.12c.66 0 1.172-.168 1.535-.504s.543-.8.543-1.39c0-.6-.17-1.074-.513-1.42s-.866-.516-1.573-.516h-2.112v3.83zM154.473 21.857h-2.63V9.097h2.63v12.76zM156.91 21.857V9.097h4.47c1.548 0 2.722.296 3.522.89.8.592 1.2 1.46 1.2 2.606 0 .625-.16 1.176-.48 1.652-.32.476-.77.825-1.34 1.047.653.164 1.17.494 1.546.99s.564 1.104.564 1.823c0 1.227-.39 2.156-1.174 2.787-.783.63-1.9.952-3.348.964h-4.96zm2.63-7.415h1.944c1.326-.023 1.99-.552 1.99-1.586 0-.58-.168-.995-.504-1.25-.336-.253-.867-.38-1.59-.38h-1.842v3.216zm0 1.858v3.444h2.25c.62 0 1.105-.147 1.452-.442s.52-.703.52-1.223c0-1.17-.604-1.763-1.813-1.78h-2.41zM176.043 16.327h-5.05v3.418h5.927v2.112h-8.555V9.097h8.537v2.13h-5.908v3.04h5.05v2.06zM192.012 11.226h-3.91v10.63h-2.63v-10.63h-3.854v-2.13h10.395v2.13zM203.748 15.766c0 1.256-.223 2.357-.666 3.304-.445.947-1.08 1.677-1.906 2.19-.828.516-1.775.772-2.846.772-1.057 0-2-.254-2.83-.763s-1.473-1.235-1.928-2.18c-.457-.943-.688-2.028-.693-3.255v-.63c0-1.257.226-2.363.68-3.318.452-.955 1.09-1.688 1.92-2.2.825-.51 1.77-.767 2.833-.767 1.064 0 2.01.256 2.836.767s1.466 1.245 1.92 2.2c.452.956.68 2.06.68 3.31v.57zm-2.666-.58c0-1.337-.238-2.353-.72-3.05-.478-.694-1.16-1.042-2.05-1.042-.88 0-1.562.343-2.04 1.03-.48.687-.724 1.693-.73 3.02v.622c0 1.303.24 2.314.72 3.033.48.717 1.17 1.077 2.067 1.077.882 0 1.56-.346 2.032-1.04.475-.69.713-1.7.72-3.027v-.623zM220.61 15.766c0 1.256-.224 2.357-.667 3.304s-1.08 1.677-1.906 2.19c-.826.516-1.775.772-2.844.772-1.06 0-2.002-.254-2.832-.763-.827-.51-1.47-1.235-1.927-2.18-.455-.943-.686-2.028-.69-3.255v-.63c0-1.257.226-2.363.677-3.318.453-.955 1.094-1.688 1.92-2.2s1.77-.767 2.836-.767c1.062 0 2.008.256 2.836.767.826.51 1.465 1.245 1.918 2.2.453.956.68 2.06.68 3.31v.57zm-2.665-.58c0-1.337-.24-2.353-.72-3.05s-1.16-1.042-2.05-1.042c-.883 0-1.562.343-2.043 1.03-.48.687-.72 1.693-.727 3.02v.622c0 1.303.238 2.314.72 3.033.478.717 1.167 1.077 2.067 1.077.883 0 1.56-.346 2.033-1.04s.713-1.7.72-3.027v-.623zM232.178 9.096V17.5c0 1.397-.436 2.502-1.31 3.314-.874.812-2.067 1.218-3.58 1.218-1.49 0-2.673-.395-3.55-1.183-.877-.79-1.324-1.874-1.342-3.253v-8.5h2.63v8.422c0 .834.2 1.444.6 1.826.4.383.954.574 1.66.574 1.48 0 2.23-.777 2.255-2.332V9.096h2.638zM239.06 17.186h-2.097v4.67h-2.63V9.097h4.743c1.508 0 2.67.336 3.488 1.008.818.672 1.227 1.622 1.227 2.85 0 .87-.187 1.596-.563 2.177-.377.582-.95 1.045-1.715 1.39l2.762 5.215v.123h-2.822l-2.393-4.672zm-2.097-2.13h2.12c.66 0 1.173-.168 1.536-.504.36-.336.542-.8.542-1.39 0-.6-.172-1.074-.514-1.42s-.865-.516-1.572-.516h-2.113v3.83zM90.816 36.36h-5.048v3.417h5.925v2.113H83.14V29.13h8.536v2.13H85.77v3.04h5.047v2.06zM97.95 38.727l2.894-9.598h2.927L99.33 41.89h-2.744l-4.426-12.76h2.918l2.875 9.597zM112.65 36.36h-5.05v3.417h5.926v2.113h-8.554V29.13h8.537v2.13H107.6v3.04h5.048v2.06zM125.445 41.89h-2.63l-5.118-8.395v8.396h-2.63V29.13h2.63l5.127 8.413V29.13h2.62v12.76zM137.093 31.26h-3.91v10.63h-2.628V31.26H126.7v-2.13h10.394v2.13zM145.07 38.542c0-.497-.176-.878-.527-1.144s-.982-.547-1.894-.842c-.912-.295-1.634-.586-2.166-.87-1.45-.784-2.174-1.84-2.174-3.165 0-.688.194-1.304.583-1.845.39-.54.946-.963 1.674-1.266.728-.306 1.544-.458 2.45-.458.912 0 1.724.166 2.437.496s1.267.796 1.66 1.397c.395.603.592 1.286.592 2.052h-2.63c0-.585-.183-1.04-.55-1.363s-.886-.486-1.552-.486c-.643 0-1.143.135-1.5.407-.355.27-.534.63-.534 1.073 0 .416.21.763.627 1.043.417.282 1.033.545 1.845.79 1.496.45 2.585 1.008 3.27 1.674s1.024 1.496 1.024 2.49c0 1.103-.417 1.97-1.253 2.598-.836.63-1.96.942-3.375.942-.98 0-1.875-.18-2.682-.54-.806-.358-1.42-.85-1.845-1.476-.423-.626-.634-1.35-.634-2.174h2.638c0 1.408.842 2.112 2.524 2.112.625 0 1.113-.127 1.464-.38s.527-.608.527-1.064zM164.332 41.89h-2.63l-5.117-8.395v8.396h-2.63V29.13h2.63l5.128 8.413V29.13h2.62v12.76zM174.307 36.36h-5.05v3.417h5.927v2.113h-8.555V29.13h8.536v2.13h-5.908v3.04h5.05v2.06zM186.664 38.21l1.72-9.08h2.62l-2.832 12.76h-2.646l-2.078-8.536-2.076 8.537h-2.646l-2.832-12.76h2.62l1.728 9.06 2.104-9.06h2.227l2.09 9.08zM199.04 38.542c0-.497-.175-.878-.526-1.144-.35-.266-.98-.547-1.893-.842s-1.632-.586-2.163-.87c-1.45-.784-2.174-1.84-2.174-3.165 0-.688.193-1.304.582-1.845.39-.54.947-.963 1.674-1.266.728-.306 1.544-.458 2.45-.458.91 0 1.723.166 2.436.496s1.268.796 1.66 1.397c.395.603.592 1.286.592 2.052h-2.63c0-.585-.183-1.04-.552-1.363-.367-.324-.885-.486-1.55-.486-.644 0-1.144.135-1.5.407-.356.27-.534.63-.534 1.073 0 .416.21.763.627 1.043.417.282 1.032.545 1.845.79 1.494.45 2.584 1.008 3.268 1.674s1.025 1.496 1.025 2.49c0 1.103-.418 1.97-1.252 2.598-.836.63-1.96.942-3.375.942-.98 0-1.874-.18-2.68-.54s-1.423-.85-1.847-1.476c-.424-.626-.635-1.35-.635-2.174h2.64c0 1.408.84 2.112 2.522 2.112.625 0 1.113-.127 1.463-.38.352-.252.528-.608.528-1.064zM206.086 39.777h5.584v2.113h-8.213V29.13h2.63v10.647zM220.855 36.36h-5.05v3.417h5.925v2.113h-8.553V29.13h8.535v2.13h-5.906v3.04h5.05v2.06zM233.055 31.26h-3.908v10.63h-2.63V31.26h-3.856v-2.13h10.396v2.13zM244.3 31.26h-3.91v10.63h-2.628V31.26h-3.857v-2.13H244.3v2.13zM253.477 36.36h-5.05v3.417h5.925v2.113H245.8V29.13h8.534v2.13h-5.906v3.04h5.05v2.06zM260.62 37.22h-2.097v4.67h-2.63V29.13h4.743c1.508 0 2.67.335 3.488 1.007s1.227 1.62 1.227 2.85c0 .87-.187 1.596-.563 2.178-.377.58-.95 1.044-1.715 1.39l2.762 5.214v.122h-2.822l-2.393-4.673zm-2.097-2.13h2.12c.66 0 1.173-.17 1.536-.505.36-.336.542-.8.542-1.39 0-.602-.172-1.074-.514-1.42-.342-.344-.865-.517-1.572-.517h-2.113v3.83z"/></g><path d="M28.77 17.222l2.207-4.777h2.388l-3.48 6.757v3.844h-2.22v-3.844l-3.48-6.757h2.395l2.19 4.777zM33.393 19.035c0-.782.15-1.48.452-2.09.3-.612.734-1.085 1.3-1.42s1.22-.502 1.97-.502c1.062 0 1.93.325 2.602.976.672.65 1.047 1.533 1.125 2.65l.015.538c0 1.208-.337 2.178-1.012 2.91s-1.58 1.095-2.716 1.095-2.043-.364-2.72-1.092c-.678-.727-1.017-1.717-1.017-2.97v-.095zm2.105.15c0 .748.14 1.32.422 1.717.28.396.684.594 1.208.594.51 0 .908-.196 1.194-.587.286-.393.43-1.02.43-1.88 0-.733-.144-1.302-.43-1.706-.287-.403-.69-.605-1.21-.605-.514 0-.912.2-1.193.6-.282.402-.422 1.023-.422 1.864zM46.87 22.246c-.52.63-1.237.946-2.154.946-.845 0-1.49-.243-1.933-.728s-.67-1.196-.68-2.133V15.17h2.103v5.096c0 .82.374 1.232 1.122 1.232.713 0 1.204-.248 1.47-.744v-5.584h2.112v7.878h-1.98l-.06-.8zM51.1 15.7l-.99-.575c.418-.655.634-1.333.65-2.032v-1.23h1.674v1.13c0 .436-.122.91-.364 1.42-.243.508-.566.938-.97 1.287zM58.346 17.142a5.693 5.693 0 0 0-.757-.058c-.797 0-1.32.27-1.566.808v5.155H53.92V15.17h1.988l.058.938c.422-.723 1.007-1.085 1.755-1.085.234 0 .453.032.656.095l-.03 2.024zM62.845 23.192c-1.155 0-2.096-.354-2.82-1.063-.727-.71-1.09-1.654-1.09-2.834v-.204c0-.79.154-1.5.46-2.123.305-.625.738-1.105 1.3-1.442s1.2-.506 1.917-.506c1.078 0 1.926.34 2.545 1.02.62.68.928 1.643.928 2.89v.86h-5.017c.068.515.273.927.615 1.238.342.31.775.466 1.3.466.81 0 1.444-.294 1.9-.88l1.034 1.157a3.156 3.156 0 0 1-1.28 1.045 4.216 4.216 0 0 1-1.792.374zm-.24-6.472c-.417 0-.756.14-1.016.424-.26.283-.427.688-.5 1.214h2.927v-.168c-.01-.468-.136-.83-.378-1.086-.244-.256-.588-.384-1.035-.384zM27.437 37.96h-2.184V27.356h2.184V37.96zM31.26 30.08l.065.91c.563-.703 1.318-1.055 2.265-1.055.834 0 1.456.245 1.864.735s.616 1.223.626 2.198v5.09h-2.104V32.92c0-.446-.097-.77-.292-.972-.194-.2-.517-.302-.968-.302-.592 0-1.036.252-1.333.757v5.556H29.28v-7.88h1.98zM40.624 35.39l1.463-5.31h2.2l-2.66 7.88H39.62l-2.66-7.88h2.2l1.464 5.31zM45.196 28.042c0-.315.106-.575.317-.78.21-.203.5-.305.863-.305.36 0 .646.102.86.306.212.204.32.464.32.78 0 .32-.11.58-.325.785s-.5.306-.854.306-.64-.102-.855-.306-.324-.466-.324-.786zm2.235 9.917h-2.11v-7.88h2.11v7.88zM51.684 28.144v1.938h1.347v1.543h-1.346v3.933c0 .29.056.5.167.626.112.126.326.19.642.19.233 0 .44-.02.62-.053v1.596c-.414.126-.838.19-1.275.19-1.476 0-2.228-.746-2.257-2.236v-4.245h-1.15v-1.543h1.15v-1.938h2.104zM57.83 38.104c-1.156 0-2.097-.354-2.822-1.062-.726-.71-1.088-1.653-1.088-2.833v-.205c0-.79.153-1.498.458-2.122s.74-1.104 1.3-1.44c.56-.34 1.2-.507 1.918-.507 1.078 0 1.926.34 2.545 1.02.62.68.93 1.643.93 2.89v.86H56.05c.068.514.273.927.615 1.237s.775.466 1.3.466c.81 0 1.444-.295 1.9-.882l1.034 1.157a3.156 3.156 0 0 1-1.28 1.045 4.22 4.22 0 0 1-1.79.374zm-.242-6.472c-.417 0-.756.142-1.016.424-.26.283-.426.688-.5 1.214H59v-.168c-.01-.468-.136-.83-.378-1.086-.243-.256-.587-.384-1.034-.384zM61.935 33.962c0-1.23.275-2.206.827-2.935.55-.73 1.304-1.092 2.26-1.092.768 0 1.4.286 1.9.858v-4.02h2.112V37.96h-1.9l-.102-.837c-.524.656-1.2.983-2.024.983-.927 0-1.67-.365-2.23-1.096-.563-.73-.843-1.744-.843-3.045zm2.105.156c0 .74.128 1.306.386 1.7s.63.59 1.12.59c.652 0 1.11-.274 1.377-.824V32.47c-.262-.55-.716-.823-1.362-.823-1.014 0-1.52.824-1.52 2.47z"/><g><title>Layer 1</title><path fill="#D3150D" d="M9 19.82c-2.395.78-3.683 3.426-2.876 5.905 1.642 5.047 6.986 4.773 11.955 8.675 1.552-5.987 6.155-9.16 4.567-14.047-.808-2.48-3.406-3.86-5.8-3.083-1.736.566-2.886 2.115-3.08 3.868-1.19-1.303-3.033-1.88-4.767-1.317z"/></g><text transform="translate(11.666 -42.143)"><tspan x="0" y="0" fill="#FFF" font-family="'Roboto-Bold'" font-size="17.95">SUBSCRIBE TO OUR</tspan><tspan x="0" y="20.033" fill="#FFF" font-family="'Roboto-Bold'" font-size="17.95">EVENTS NEWSLETTER</tspan></text><text transform="translate(-46.166 -40.62)"><tspan x="0" y="0" font-family="'Roboto-Bold'" font-size="14.912">You’re</tspan><tspan x="0" y="14.912" font-family="'Roboto-Bold'" font-size="14.912">Invited</tspan></text></g></svg>