<svg xmlns="http://www.w3.org/2000/svg" width="300" height="50" viewBox="0 0 300 50"><path fill="#123C6C" d="M300 40c0 5.522-4.478 10-10 10H10C4.477 50 0 45.522 0 40V10C0 4.477 4.477 0 10 0h280c5.522 0 10 4.477 10 10v30z"/><g fill="#F9C711"><path d="M87.49 18.026c0-.496-.175-.876-.525-1.14-.35-.267-.98-.546-1.89-.84-.91-.295-1.63-.585-2.16-.87-1.445-.782-2.167-1.834-2.167-3.158 0-.688.193-1.3.582-1.84.387-.54.944-.96 1.67-1.265.726-.303 1.54-.455 2.444-.455.91 0 1.72.165 2.43.494.712.33 1.264.794 1.658 1.395.394.6.59 1.282.59 2.046h-2.624c0-.583-.184-1.036-.55-1.36-.368-.323-.884-.485-1.55-.485-.64 0-1.14.136-1.494.407-.356.27-.534.628-.534 1.07 0 .415.208.762.625 1.042.417.28 1.03.542 1.84.787 1.493.45 2.58 1.006 3.263 1.67s1.023 1.492 1.023 2.483c0 1.102-.416 1.966-1.25 2.593-.832.627-1.955.94-3.366.94-.98 0-1.87-.18-2.676-.538-.805-.36-1.418-.85-1.84-1.474-.424-.624-.635-1.347-.635-2.168h2.632c0 1.405.84 2.107 2.52 2.107.623 0 1.11-.127 1.46-.38.35-.253.525-.607.525-1.06zM101.534 8.634v8.386c0 1.394-.436 2.495-1.307 3.306-.872.81-2.062 1.215-3.572 1.215-1.487 0-2.667-.393-3.542-1.18-.875-.787-1.32-1.868-1.338-3.244V8.634H94.4v8.404c0 .834.2 1.44.598 1.823s.952.574 1.657.574c1.475 0 2.224-.775 2.247-2.326V8.634h2.632zM103.685 21.366V8.634h4.46c1.545 0 2.716.296 3.515.888s1.198 1.46 1.198 2.602c0 .624-.16 1.173-.48 1.648-.322.475-.768.823-1.34 1.045.654.163 1.168.493 1.544.988s.564 1.102.564 1.82c0 1.223-.39 2.15-1.172 2.78s-1.895.95-3.34.962h-4.95zm2.624-7.398h1.94c1.323-.023 1.985-.55 1.985-1.583 0-.577-.167-.992-.503-1.246-.335-.254-.864-.38-1.587-.38h-1.836v3.208zm0 1.854v3.437h2.247c.618 0 1.1-.148 1.447-.443.347-.294.52-.7.52-1.22 0-1.166-.604-1.758-1.81-1.775h-2.405zM121.717 18.026c0-.496-.175-.876-.525-1.14-.35-.267-.98-.546-1.89-.84-.91-.295-1.63-.585-2.16-.87-1.445-.782-2.167-1.834-2.167-3.158 0-.688.193-1.3.582-1.84.387-.54.944-.96 1.67-1.265.726-.303 1.54-.455 2.444-.455.91 0 1.72.165 2.432.494.71.33 1.263.794 1.657 1.395.393.6.59 1.282.59 2.046h-2.625c0-.583-.184-1.036-.55-1.36-.368-.323-.884-.485-1.55-.485-.64 0-1.14.136-1.494.407-.355.27-.533.628-.533 1.07 0 .415.208.762.625 1.042.417.28 1.03.542 1.84.787 1.493.45 2.58 1.006 3.263 1.67s1.023 1.492 1.023 2.483c0 1.102-.417 1.966-1.25 2.593s-1.956.94-3.367.94c-.978 0-1.87-.18-2.675-.538-.805-.36-1.418-.85-1.84-1.474-.424-.624-.635-1.347-.635-2.168h2.632c0 1.405.84 2.107 2.52 2.107.623 0 1.11-.127 1.46-.38.35-.253.525-.607.525-1.06zM136.12 17.125c-.1 1.37-.606 2.45-1.518 3.235-.913.787-2.115 1.18-3.607 1.18-1.633 0-2.917-.548-3.852-1.647-.936-1.1-1.404-2.607-1.404-4.525v-.778c0-1.224.215-2.303.646-3.235.432-.933 1.048-1.648 1.85-2.147.802-.498 1.733-.748 2.794-.748 1.47 0 2.653.394 3.55 1.18.898.788 1.417 1.893 1.557 3.315h-2.624c-.064-.822-.293-1.418-.686-1.788-.394-.37-.993-.555-1.797-.555-.875 0-1.53.313-1.963.94-.435.627-.658 1.6-.67 2.917v.96c0 1.377.21 2.382.626 3.018.417.636 1.074.953 1.972.953.81 0 1.415-.184 1.814-.554.398-.37.627-.943.686-1.718h2.623zM142.555 16.705h-2.09v4.66h-2.624V8.636h4.732c1.504 0 2.664.334 3.48 1.005.816.67 1.224 1.618 1.224 2.842 0 .87-.188 1.593-.564 2.173s-.946 1.042-1.71 1.386l2.755 5.204v.123h-2.816l-2.385-4.662zm-2.09-2.124h2.116c.66 0 1.17-.167 1.53-.502.362-.335.543-.797.543-1.386 0-.6-.17-1.072-.51-1.417-.342-.344-.866-.516-1.57-.516h-2.108v3.82zM152.06 21.366h-2.623V8.634h2.624v12.732zM154.49 21.366V8.634h4.46c1.546 0 2.718.296 3.517.888.798.592 1.197 1.46 1.197 2.602 0 .624-.16 1.173-.48 1.648s-.767.823-1.338 1.045c.652.163 1.167.493 1.543.988s.563 1.102.563 1.82c0 1.223-.39 2.15-1.172 2.78s-1.894.95-3.34.962h-4.95zm2.624-7.398h1.94c1.324-.023 1.986-.55 1.986-1.583 0-.577-.168-.992-.503-1.246-.335-.254-.864-.38-1.587-.38h-1.837v3.208zm0 1.854v3.437h2.248c.617 0 1.1-.148 1.447-.443.346-.294.52-.7.52-1.22 0-1.166-.604-1.758-1.81-1.775h-2.406zM173.58 15.848h-5.036v3.41h5.912v2.108h-8.535V8.634h8.52v2.125h-5.896v3.034h5.037v2.054zM189.514 10.76h-3.9v10.606h-2.623V10.76h-3.847V8.633h10.37v2.125zM201.224 15.29c0 1.252-.222 2.352-.665 3.296s-1.078 1.673-1.902 2.186c-.825.513-1.77.77-2.838.77-1.056 0-1.997-.253-2.824-.76-.828-.508-1.47-1.232-1.924-2.174-.455-.94-.686-2.024-.69-3.25v-.628c0-1.253.225-2.357.677-3.31s1.09-1.685 1.914-2.195c.825-.51 1.768-.765 2.83-.765 1.06 0 2.003.255 2.828.765.824.51 1.463 1.242 1.915 2.195.45.953.678 2.054.678 3.3v.57zm-2.66-.58c0-1.334-.238-2.348-.717-3.042-.478-.694-1.16-1.04-2.046-1.04-.88 0-1.56.34-2.036 1.026-.48.685-.72 1.69-.727 3.013v.62c0 1.3.24 2.31.718 3.027.478.717 1.165 1.076 2.063 1.076.88 0 1.557-.346 2.028-1.037.473-.69.712-1.698.718-3.02v-.622zM88.548 35.85H83.51v3.41h5.912v2.106h-8.535V28.634h8.518v2.125H83.51v3.033h5.038v2.056zM95.666 38.21l2.886-9.576h2.92L97.04 41.366H94.3l-4.416-12.732h2.912l2.868 9.575zM110.332 35.85h-5.037v3.41h5.91v2.106h-8.534V28.634h8.52v2.125h-5.895v3.033h5.037v2.056zM123.1 41.366h-2.625l-5.107-8.377v8.376h-2.624V28.634h2.624l5.116 8.396v-8.396h2.615v12.732zM134.72 30.76h-3.9v10.606h-2.624V30.76h-3.848v-2.126h10.372v2.125zM142.678 38.025c0-.495-.175-.875-.525-1.14s-.98-.546-1.89-.84c-.91-.295-1.63-.585-2.16-.87-1.445-.782-2.167-1.834-2.167-3.157 0-.688.193-1.302.582-1.84.387-.54.944-.962 1.67-1.265.726-.304 1.54-.455 2.444-.455.91 0 1.72.165 2.43.494.712.33 1.264.794 1.658 1.395s.59 1.283.59 2.047h-2.624c0-.583-.184-1.036-.55-1.36-.368-.323-.884-.485-1.55-.485-.64 0-1.14.135-1.494.406-.356.27-.534.628-.534 1.07 0 .414.208.762.625 1.04.417.28 1.03.543 1.84.788 1.493.45 2.58 1.006 3.263 1.67.682.665 1.023 1.493 1.023 2.483 0 1.103-.418 1.967-1.25 2.593-.834.627-1.957.94-3.368.94-.98 0-1.87-.18-2.676-.538-.805-.358-1.418-.85-1.84-1.473-.424-.625-.635-1.348-.635-2.17h2.633c0 1.405.84 2.107 2.52 2.107.623 0 1.11-.127 1.46-.38.35-.252.525-.607.525-1.062zM161.898 41.366h-2.623l-5.107-8.377v8.376h-2.623V28.634h2.623l5.115 8.396v-8.396h2.615v12.732zM171.85 35.85h-5.037v3.41h5.912v2.106h-8.535V28.634h8.518v2.125h-5.895v3.033h5.037v2.056zM184.18 37.693l1.715-9.06h2.614l-2.825 12.732h-2.642l-2.072-8.518-2.07 8.518h-2.642l-2.825-12.732h2.615l1.723 9.042 2.1-9.042h2.22l2.09 9.06zM196.527 38.025c0-.495-.175-.875-.524-1.14-.35-.267-.98-.546-1.89-.84-.91-.295-1.63-.585-2.16-.87-1.445-.782-2.168-1.834-2.168-3.157 0-.688.193-1.302.58-1.84s.945-.962 1.672-1.265c.726-.304 1.54-.455 2.443-.455.91 0 1.72.165 2.432.494.71.33 1.264.794 1.657 1.395s.59 1.283.59 2.047h-2.624c0-.583-.184-1.036-.55-1.36-.368-.323-.885-.485-1.55-.485-.64 0-1.14.135-1.495.406-.354.27-.532.628-.532 1.07 0 .414.21.762.625 1.04.417.28 1.03.543 1.84.788 1.494.45 2.58 1.006 3.263 1.67.683.665 1.023 1.493 1.023 2.483 0 1.103-.418 1.967-1.25 2.593-.835.627-1.957.94-3.368.94-.98 0-1.87-.18-2.676-.538-.805-.358-1.418-.85-1.84-1.473-.424-.625-.635-1.348-.635-2.17h2.633c0 1.405.84 2.107 2.52 2.107.623 0 1.11-.127 1.46-.38.35-.252.524-.607.524-1.062zM203.558 39.26h5.57v2.106h-8.193V28.634h2.623V39.26zM218.293 35.85h-5.037v3.41h5.912v2.106h-8.535V28.634h8.518v2.125h-5.894v3.033h5.037v2.056zM230.465 30.76h-3.9v10.606h-2.623V30.76h-3.848v-2.126h10.37v2.125zM241.685 30.76h-3.9v10.606h-2.623V30.76h-3.848v-2.126h10.37v2.125zM250.84 35.85h-5.037v3.41h5.912v2.106h-8.535V28.634h8.518v2.125h-5.895v3.033h5.037v2.056zM257.968 36.705h-2.09v4.66h-2.624v-12.73h4.73c1.505 0 2.665.335 3.48 1.005.816.67 1.225 1.618 1.225 2.842 0 .87-.19 1.593-.565 2.173-.376.58-.945 1.043-1.71 1.387l2.756 5.203v.122h-2.815l-2.387-4.662zm-2.09-2.125h2.115c.66 0 1.17-.167 1.53-.503.362-.335.543-.797.543-1.386 0-.6-.17-1.07-.512-1.416-.34-.344-.864-.516-1.57-.516h-2.107v3.822z"/></g><g fill="#FFF"><path d="M15.667 41.144c-1.876 0-3.402-1.443-3.402-3.218V11.948c0-1.774 1.526-3.217 3.402-3.217h49.207c1.876 0 3.403 1.444 3.403 3.218v25.978c0 1.774-1.527 3.218-3.403 3.218H15.667z"/><path d="M64.874 10.23c1.05 0 1.903.77 1.903 1.718v25.978c0 .95-.853 1.718-1.903 1.718H15.667c-1.05 0-1.902-.77-1.902-1.718V11.948c0-.948.853-1.717 1.902-1.717h49.207m0-3H15.667c-2.703 0-4.902 2.117-4.902 4.718v25.978c0 2.602 2.2 4.718 4.902 4.718h49.207c2.704 0 4.903-2.116 4.903-4.718V11.948c0-2.6-2.2-4.717-4.903-4.717z"/></g><title>Layer 1</title><path fill="#D3150D" d="M17.56 21.4c-1.845.577-2.856 2.598-2.257 4.512 1.22 3.89 5.327 3.724 9.113 6.763 1.242-4.588 4.806-6.987 3.626-10.754-.6-1.912-2.584-2.995-4.43-2.416-1.34.42-2.235 1.6-2.4 2.945-.903-1.012-2.312-1.47-3.65-1.05z"/><path d="M33.085 18.218l1.777-3.85h1.924l-2.804 5.445v3.098h-1.79v-3.097l-2.804-5.444h1.93l1.767 3.848zM36.81 19.68c0-.63.122-1.192.365-1.685.243-.493.59-.874 1.047-1.144.456-.27.984-.404 1.587-.404.855 0 1.555.262 2.096.786.542.524.844 1.236.907 2.136l.012.434c0 .974-.272 1.755-.816 2.344-.544.59-1.274.883-2.19.883-.915 0-1.645-.294-2.19-.88-.545-.588-.818-1.386-.818-2.395v-.076zm1.696.12c0 .603.114 1.063.34 1.383.227.32.552.48.974.48.41 0 .73-.16.962-.474.23-.316.346-.82.346-1.514 0-.59-.115-1.05-.346-1.375-.23-.324-.555-.487-.974-.487-.415 0-.735.162-.962.485-.226.323-.34.824-.34 1.5zM47.67 22.266c-.42.51-.998.763-1.737.763-.68 0-1.2-.196-1.558-.587s-.54-.964-.548-1.72v-4.158h1.695v4.105c0 .662.3.993.903.993.575 0 .97-.2 1.185-.6v-4.498h1.702v6.348h-1.596l-.046-.647zM51.08 16.992l-.8-.464c.337-.528.51-1.073.523-1.637v-.99h1.35v.91c0 .35-.098.732-.293 1.143-.197.41-.457.757-.78 1.04zM56.916 18.154a4.658 4.658 0 0 0-.61-.047c-.64 0-1.062.217-1.26.65v4.155H53.35v-6.348h1.602l.047.756c.34-.583.81-.874 1.413-.874.188 0 .364.025.528.076l-.024 1.632zM60.542 23.03c-.93 0-1.688-.286-2.273-.857-.585-.57-.878-1.332-.878-2.282v-.163c0-.638.123-1.208.37-1.71s.596-.89 1.047-1.162c.45-.27.966-.408 1.545-.408.868 0 1.552.274 2.05.82.5.55.748 1.325.748 2.33v.692H59.11c.055.414.22.746.496.997.276.25.625.375 1.047.375.653 0 1.164-.237 1.53-.71l.834.933c-.254.36-.6.64-1.033.842-.433.2-.914.302-1.442.302zm-.194-5.217c-.336 0-.61.114-.818.342-.21.228-.343.554-.402.978h2.358v-.135c-.008-.377-.11-.67-.305-.875-.195-.206-.472-.31-.832-.31zM32.012 34.927h-1.76v-8.542h1.76v8.542zM35.092 28.58l.053.732c.454-.567 1.062-.85 1.825-.85.672 0 1.173.196 1.502.59.328.397.497.987.504 1.773v4.1H37.28v-4.06c0-.36-.078-.62-.234-.782-.157-.162-.417-.244-.78-.244-.478 0-.835.203-1.074.61v4.476h-1.695v-6.348h1.595zM42.637 32.855l1.18-4.276h1.77l-2.14 6.347h-1.62l-2.142-6.348h1.772l1.18 4.275zM46.32 26.937c0-.255.086-.464.256-.628.17-.165.402-.247.695-.247.29 0 .52.082.693.246a.83.83 0 0 1 .258.627.83.83 0 0 1-.26.633c-.174.165-.404.247-.69.247s-.514-.082-.688-.247a.834.834 0 0 1-.26-.633zm1.802 7.99H46.42V28.58h1.7v6.347zM51.548 27.02v1.56h1.085v1.243h-1.085v3.168c0 .236.045.404.135.506s.262.152.517.152c.188 0 .354-.014.5-.04v1.284a3.485 3.485 0 0 1-1.028.152c-1.19 0-1.795-.6-1.818-1.8V29.82h-.927V28.58h.927v-1.562h1.694zM56.5 35.044c-.93 0-1.688-.285-2.273-.856-.584-.57-.877-1.332-.877-2.282v-.164c0-.638.123-1.208.37-1.71a2.72 2.72 0 0 1 1.047-1.162c.452-.27.967-.407 1.546-.407.868 0 1.552.273 2.05.82.5.548.748 1.324.748 2.33v.692h-4.04c.054.414.22.747.495.997s.625.375 1.047.375c.653 0 1.164-.236 1.53-.71l.834.934c-.254.36-.6.642-1.033.843s-.915.3-1.443.3zm-.194-5.216c-.336 0-.61.114-.818.342-.21.23-.343.555-.402.98h2.358v-.137c-.008-.377-.11-.67-.305-.875-.197-.206-.474-.31-.834-.31zM59.81 31.706c0-.99.22-1.777.665-2.364s1.05-.88 1.82-.88c.62 0 1.13.23 1.532.692v-3.24h1.702v9.012h-1.532l-.082-.675c-.422.53-.966.793-1.63.793-.748 0-1.347-.294-1.8-.883s-.677-1.406-.677-2.454zm1.694.126c0 .596.104 1.052.31 1.37.21.316.51.475.905.475.523 0 .893-.22 1.107-.664v-2.51c-.21-.44-.577-.663-1.097-.663-.817 0-1.226.664-1.226 1.992z"/><path fill="#FFF" d="M280.26 7.61h-8.75l10.183 17.64-10.184 17.64h8.75l10.183-17.64z"/></svg>