<svg xmlns="http://www.w3.org/2000/svg" width="300" height="50" viewBox="0 0 300 50"><path fill="#18599B" d="M300 40c0 5.522-4.478 10-10 10H10C4.477 50 0 45.522 0 40V10C0 4.477 4.477 0 10 0h280c5.522 0 10 4.477 10 10v30z"/><path fill="#FFF" d="M75.833 40.377a4.957 4.957 0 0 1-4.958 4.957H11.88a4.957 4.957 0 0 1-4.957-4.957V11.29a4.958 4.958 0 0 1 4.958-4.956h58.996a4.958 4.958 0 0 1 4.958 4.957v29.087zM280.26 7.61h-8.75l10.183 17.64-10.184 17.64h8.75l10.183-17.64z"/><g fill="#FFF"><path d="M90.09 18.8c0-.497-.176-.878-.527-1.144-.35-.266-.982-.546-1.894-.84-.912-.296-1.634-.587-2.166-.873-1.45-.783-2.174-1.838-2.174-3.164 0-.69.194-1.306.583-1.846.39-.54.946-.962 1.674-1.266s1.544-.456 2.45-.456c.912 0 1.724.165 2.437.495.713.33 1.267.796 1.66 1.398.395.602.592 1.286.592 2.05h-2.63c0-.583-.183-1.038-.55-1.362-.37-.324-.886-.486-1.552-.486-.643 0-1.143.136-1.5.408-.355.27-.534.63-.534 1.074 0 .414.21.76.627 1.042.417.28 1.033.543 1.845.79 1.496.45 2.585 1.007 3.27 1.673.683.666 1.024 1.496 1.024 2.49 0 1.103-.417 1.97-1.253 2.598-.836.628-1.96.942-3.375.942-.98 0-1.875-.18-2.682-.54-.806-.358-1.42-.85-1.845-1.476-.423-.626-.634-1.35-.634-2.175h2.638c0 1.408.842 2.112 2.524 2.112.625 0 1.113-.127 1.464-.38.352-.256.527-.61.527-1.067zM104.165 9.387v8.405c0 1.396-.437 2.5-1.31 3.313-.874.812-2.067 1.218-3.58 1.218-1.49 0-2.674-.395-3.55-1.183-.877-.79-1.324-1.873-1.342-3.252v-8.5h2.63v8.422c0 .835.2 1.445.6 1.827.4.383.954.574 1.66.574 1.48 0 2.23-.776 2.253-2.33V9.386h2.64zM106.32 22.148V9.388h4.47c1.55 0 2.724.296 3.524.89.8.592 1.2 1.46 1.2 2.606 0 .625-.16 1.176-.48 1.652a2.78 2.78 0 0 1-1.342 1.047c.654.164 1.17.494 1.547.99s.564 1.104.564 1.823c0 1.227-.392 2.156-1.174 2.787-.783.63-1.9.952-3.348.964h-4.96zm2.63-7.415h1.946c1.327-.023 1.99-.552 1.99-1.586 0-.58-.168-.995-.504-1.25-.336-.253-.867-.38-1.59-.38h-1.842v3.216zm0 1.858v3.445h2.252c.62 0 1.103-.147 1.45-.442s.522-.703.522-1.223c0-1.17-.604-1.762-1.814-1.78h-2.41zM124.394 18.8c0-.497-.175-.878-.526-1.144-.35-.266-.982-.546-1.894-.84-.91-.296-1.633-.587-2.165-.873-1.45-.783-2.175-1.838-2.175-3.164 0-.69.194-1.306.583-1.846.39-.54.946-.962 1.674-1.266s1.544-.456 2.45-.456c.912 0 1.724.165 2.437.495.712.33 1.266.796 1.66 1.398.394.602.59 1.286.59 2.05h-2.628c0-.583-.184-1.038-.552-1.362-.368-.324-.885-.486-1.55-.486-.644 0-1.144.136-1.5.408-.356.27-.535.63-.535 1.074 0 .414.21.76.627 1.042.417.28 1.033.543 1.845.79 1.496.45 2.585 1.007 3.27 1.673.683.666 1.024 1.496 1.024 2.49 0 1.103-.416 1.97-1.252 2.598-.836.628-1.96.942-3.375.942-.98 0-1.875-.18-2.682-.54-.805-.358-1.42-.85-1.844-1.476-.424-.626-.635-1.35-.635-2.175h2.64c0 1.408.84 2.112 2.523 2.112.625 0 1.113-.127 1.464-.38.35-.256.527-.61.527-1.067zM138.83 17.897c-.1 1.374-.607 2.454-1.522 3.243-.915.79-2.12 1.183-3.616 1.183-1.636 0-2.923-.55-3.86-1.652-.938-1.1-1.407-2.612-1.407-4.535v-.78c0-1.227.216-2.308.648-3.243.432-.935 1.05-1.652 1.854-2.152.804-.5 1.737-.75 2.8-.75 1.473 0 2.66.395 3.56 1.183.898.79 1.42 1.896 1.56 3.322h-2.63c-.064-.824-.293-1.42-.688-1.792s-.996-.557-1.802-.557c-.876 0-1.532.314-1.967.942-.435.628-.658 1.603-.67 2.923v.965c0 1.38.21 2.387.627 3.024.417.636 1.077.954 1.976.954.812 0 1.418-.185 1.82-.556s.628-.945.687-1.723h2.63zM145.28 17.477h-2.096v4.67h-2.63V9.388h4.743c1.508 0 2.67.336 3.488 1.008.818.672 1.227 1.622 1.227 2.85 0 .87-.188 1.596-.565 2.177-.376.58-.948 1.044-1.713 1.39l2.76 5.214v.123h-2.82l-2.395-4.673zm-2.095-2.13h2.12c.66 0 1.172-.168 1.535-.504s.543-.8.543-1.39c0-.6-.17-1.074-.513-1.42s-.866-.516-1.573-.516h-2.112v3.83zM154.807 22.148h-2.63V9.388h2.63v12.76zM157.242 22.148V9.388h4.47c1.55 0 2.724.296 3.524.89.8.592 1.2 1.46 1.2 2.606 0 .625-.16 1.176-.48 1.652-.32.476-.77.825-1.34 1.047.653.164 1.17.494 1.546.99s.564 1.104.564 1.823c0 1.227-.39 2.156-1.174 2.787-.783.63-1.9.952-3.35.964h-4.96zm2.63-7.415h1.946c1.326-.023 1.99-.552 1.99-1.586 0-.58-.168-.995-.504-1.25-.338-.253-.867-.38-1.592-.38h-1.84v3.216zm0 1.858v3.445h2.253c.62 0 1.104-.147 1.45-.442s.522-.703.522-1.223c0-1.17-.605-1.762-1.814-1.78h-2.41zM176.377 16.618h-5.05v3.418h5.925v2.112H168.7V9.388h8.534v2.13h-5.906v3.04h5.05v2.06zM192.344 11.517h-3.908v10.63h-2.63v-10.63h-3.856v-2.13h10.395v2.13zM204.08 16.057c0 1.256-.223 2.357-.666 3.304s-1.08 1.678-1.906 2.192c-.826.515-1.775.77-2.844.77-1.06 0-2.002-.253-2.832-.762-.828-.508-1.47-1.234-1.928-2.178-.455-.944-.686-2.03-.69-3.256v-.63c0-1.257.226-2.363.677-3.318.454-.955 1.095-1.688 1.92-2.2s1.772-.767 2.837-.767c1.062 0 2.008.257 2.836.768.826.51 1.465 1.245 1.918 2.2.454.956.68 2.06.68 3.31v.57zm-2.664-.58c0-1.337-.24-2.353-.72-3.05s-1.16-1.042-2.05-1.042c-.883 0-1.562.343-2.043 1.03-.48.687-.72 1.693-.727 3.02v.622c0 1.303.238 2.314.72 3.033.478.718 1.167 1.078 2.067 1.078.883 0 1.56-.346 2.033-1.04s.713-1.7.72-3.027v-.622zM220.943 16.057c0 1.256-.223 2.357-.666 3.304-.445.948-1.08 1.678-1.906 2.192-.827.515-1.774.77-2.845.77-1.057 0-2-.253-2.83-.762s-1.473-1.234-1.928-2.178c-.457-.944-.688-2.03-.693-3.256v-.63c0-1.257.227-2.363.68-3.318.453-.955 1.092-1.688 1.92-2.2.826-.51 1.77-.767 2.834-.767s2.01.257 2.836.768 1.467 1.245 1.92 2.2c.453.956.68 2.06.68 3.31v.57zm-2.666-.58c0-1.337-.238-2.353-.72-3.05-.478-.694-1.16-1.042-2.05-1.042-.88 0-1.562.343-2.04 1.03-.48.687-.724 1.693-.73 3.02v.622c0 1.303.24 2.314.72 3.033.48.718 1.17 1.078 2.067 1.078.883 0 1.56-.346 2.033-1.04.475-.69.713-1.7.72-3.027v-.622zM232.512 9.387v8.405c0 1.396-.438 2.5-1.31 3.313s-2.067 1.218-3.58 1.218c-1.49 0-2.675-.395-3.552-1.183-.875-.79-1.322-1.873-1.34-3.252v-8.5h2.63v8.422c0 .835.198 1.445.6 1.827.4.383.954.574 1.66.574 1.48 0 2.23-.776 2.253-2.33V9.386h2.64zM239.39 17.477h-2.093v4.67h-2.63V9.388h4.74c1.51 0 2.67.336 3.49 1.008.817.672 1.228 1.622 1.228 2.85 0 .87-.19 1.596-.566 2.177-.378.58-.948 1.044-1.714 1.39l2.76 5.214v.123h-2.822l-2.393-4.673zm-2.093-2.13h2.12c.66 0 1.173-.168 1.534-.504.364-.336.544-.8.544-1.39 0-.6-.17-1.074-.512-1.42s-.867-.516-1.574-.516h-2.11v3.83zM91.15 36.65H86.1v3.418h5.926v2.113h-8.554V29.42h8.537v2.13H86.1v3.042h5.048v2.058zM98.284 39.018l2.893-9.598h2.927L99.66 42.182h-2.744L92.49 29.42h2.92l2.874 9.598zM112.982 36.65h-5.048v3.418h5.925v2.113h-8.555V29.42h8.537v2.13h-5.907v3.042h5.048v2.058zM125.778 42.182h-2.63l-5.118-8.396v8.396h-2.63V29.42h2.63l5.127 8.414V29.42h2.62v12.762zM137.426 31.55h-3.91v10.632h-2.628V31.55h-3.856v-2.13h10.395v2.13zM145.402 38.833c0-.497-.175-.878-.526-1.144s-.982-.548-1.894-.843c-.91-.295-1.633-.586-2.165-.87-1.45-.784-2.174-1.84-2.174-3.165 0-.69.194-1.305.583-1.846.39-.54.946-.963 1.674-1.266.728-.305 1.544-.457 2.45-.457.912 0 1.724.166 2.437.496s1.267.795 1.66 1.396c.395.603.592 1.286.592 2.052h-2.63c0-.585-.184-1.04-.552-1.363s-.885-.486-1.55-.486c-.644 0-1.144.134-1.5.406-.356.27-.535.63-.535 1.073 0 .415.21.762.627 1.042.417.28 1.033.544 1.845.79 1.496.45 2.585 1.007 3.27 1.673s1.024 1.496 1.024 2.49c0 1.103-.418 1.97-1.254 2.598-.836.63-1.96.942-3.375.942-.98 0-1.874-.18-2.68-.54-.807-.358-1.422-.85-1.846-1.476-.424-.627-.635-1.352-.635-2.175h2.637c0 1.408.842 2.112 2.524 2.112.626 0 1.114-.127 1.465-.38s.527-.608.527-1.064zM164.666 42.182h-2.63l-5.118-8.396v8.396h-2.63V29.42h2.63l5.127 8.414V29.42h2.62v12.762zM174.64 36.65h-5.048v3.418h5.924v2.113h-8.553V29.42h8.535v2.13h-5.906v3.042h5.05v2.058zM186.998 38.5l1.717-9.08h2.62l-2.83 12.762h-2.647l-2.076-8.537-2.078 8.537h-2.646l-2.83-12.762h2.62l1.728 9.062 2.104-9.062h2.225l2.093 9.08zM199.373 38.833c0-.497-.176-.878-.525-1.144-.352-.267-.982-.548-1.893-.843-.912-.295-1.635-.586-2.166-.87-1.45-.784-2.175-1.84-2.175-3.165 0-.69.195-1.305.584-1.846.388-.54.944-.963 1.673-1.266.727-.305 1.543-.457 2.45-.457.91 0 1.724.166 2.437.496s1.266.795 1.66 1.396c.395.603.592 1.286.592 2.052h-2.63c0-.585-.185-1.04-.552-1.363-.37-.324-.885-.486-1.55-.486-.644 0-1.144.134-1.5.406-.356.27-.534.63-.534 1.073 0 .415.207.762.625 1.042.42.28 1.034.544 1.847.79 1.496.45 2.586 1.007 3.27 1.673s1.025 1.496 1.025 2.49c0 1.103-.418 1.97-1.254 2.598-.836.63-1.96.942-3.375.942-.98 0-1.875-.18-2.682-.54s-1.42-.85-1.843-1.476c-.424-.627-.637-1.352-.637-2.175h2.64c0 1.408.84 2.112 2.522 2.112.627 0 1.113-.127 1.465-.38.35-.252.526-.608.526-1.064zM206.42 40.068h5.582v2.113h-8.21V29.42h2.628v10.648zM221.188 36.65h-5.05v3.418h5.927v2.113h-8.555V29.42h8.537v2.13h-5.908v3.042h5.048v2.058zM233.39 31.55h-3.91v10.632h-2.63V31.55h-3.855v-2.13h10.395v2.13zM244.633 31.55h-3.91v10.632h-2.63V31.55h-3.854v-2.13h10.394v2.13zM253.81 36.65h-5.05v3.418h5.926v2.113h-8.555V29.42h8.538v2.13h-5.908v3.042h5.05v2.058zM260.95 37.51h-2.093v4.672h-2.63V29.42h4.74c1.51 0 2.67.336 3.49 1.008s1.228 1.62 1.228 2.85c0 .87-.19 1.596-.566 2.178-.378.58-.948 1.044-1.714 1.39l2.76 5.214v.123h-2.822l-2.393-4.673zm-2.093-2.13h2.12c.66 0 1.173-.168 1.534-.504.364-.336.544-.8.544-1.39 0-.602-.17-1.074-.512-1.42-.342-.344-.867-.517-1.574-.517h-2.11v3.83z"/></g><path fill="#EDEDED" d="M41.38 25.75l34.454-14.542s-.006-4.354-4.63-4.947H11.358s-4.22.36-4.454 4.892L41.38 25.75z"/><linearGradient id="a" gradientUnits="userSpaceOnUse" x1="19.334" y1="25.725" x2="36.999" y2="55.327"><stop offset="0" stop-color="#FFF"/><stop offset="1" stop-color="#9e9e9e"/></linearGradient><path fill="url(#a)" d="M6.906 11.152L41.38 25.75 11.452 45.297s-4.188-.094-4.53-4.734l-.017-29.41z"/><linearGradient id="b" gradientUnits="userSpaceOnUse" x1="-37.292" y1="25.725" x2="-19.626" y2="55.327" gradientTransform="matrix(-1 0 0 1 26.285 0)"><stop offset="0" stop-color="#FFF"/><stop offset="1" stop-color="#9e9e9e"/></linearGradient><path fill="url(#b)" d="M76.004 11.152L41.53 25.75l29.927 19.546s4.188-.094 4.53-4.734l.017-29.41z"/><path d="M20.998 17.706l2.59-5.605h2.8l-4.083 7.93v4.51H19.7v-4.51l-4.085-7.93h2.81L21 17.707zM26.423 19.833c0-.917.176-1.734.53-2.452.353-.717.86-1.272 1.525-1.665s1.434-.59 2.31-.59c1.25 0 2.267.382 3.056 1.145.79.763 1.23 1.8 1.32 3.11l.017.632c0 1.418-.395 2.556-1.187 3.413-.792.857-1.854 1.286-3.187 1.286-1.333 0-2.396-.426-3.19-1.28s-1.193-2.017-1.193-3.486v-.11zm2.47.175c0 .878.164 1.55.495 2.015.33.464.803.697 1.418.697.598 0 1.065-.23 1.4-.688.337-.46.505-1.193.505-2.203 0-.862-.167-1.53-.503-2.003s-.81-.71-1.418-.71c-.605 0-1.072.235-1.402.706-.33.47-.496 1.198-.496 2.185zM42.238 23.6c-.61.74-1.453 1.11-2.53 1.11-.99 0-1.747-.284-2.268-.853-.52-.57-.788-1.404-.8-2.503v-6.058h2.47v5.98c0 .963.438 1.444 1.315 1.444.837 0 1.413-.29 1.726-.872v-6.552h2.48v9.245h-2.325l-.067-.94zM47.202 15.92l-1.162-.675c.49-.77.743-1.563.76-2.384v-1.443h1.965v1.324c0 .514-.143 1.07-.427 1.667a4.582 4.582 0 0 1-1.136 1.513zM55.703 17.61a6.796 6.796 0 0 0-.89-.067c-.933 0-1.545.316-1.836.948v6.05h-2.47v-9.245h2.334l.07 1.102c.495-.85 1.18-1.273 2.058-1.273.273 0 .53.037.77.11l-.035 2.377zM60.983 24.71c-1.355 0-2.46-.415-3.31-1.246-.853-.832-1.278-1.94-1.278-3.324v-.24c0-.928.18-1.758.538-2.49s.867-1.296 1.525-1.692c.658-.396 1.408-.594 2.25-.594 1.266 0 2.26.4 2.987 1.196s1.09 1.928 1.09 3.392v1.008h-5.888c.08.604.32 1.088.722 1.452.4.365.91.547 1.524.547.95 0 1.694-.345 2.23-1.034l1.213 1.358c-.37.524-.87.933-1.503 1.226-.63.295-1.332.44-2.1.44zm-.282-7.594c-.49 0-.886.166-1.19.498-.306.332-.5.807-.586 1.424h3.435v-.197c-.012-.548-.16-.973-.445-1.273-.286-.3-.69-.45-1.214-.45zM17.448 39.627h-2.563v-12.44h2.563v12.44zM21.933 30.383l.077 1.066c.66-.825 1.546-1.24 2.657-1.24.98 0 1.71.288 2.188.864.478.574.723 1.436.734 2.58v5.973h-2.47v-5.912c0-.525-.114-.904-.34-1.14-.23-.237-.608-.356-1.138-.356-.695 0-1.216.296-1.563.888v6.52h-2.47v-9.244h2.323zM32.92 36.61l1.717-6.228h2.58L34.1 39.627h-2.358l-3.12-9.244h2.582l1.716 6.228zM38.286 27.99c0-.37.124-.676.372-.914.248-.24.585-.36 1.013-.36.422 0 .758.12 1.01.36.25.238.375.543.375.914 0 .375-.127.684-.38.922-.253.24-.588.36-1.004.36-.415 0-.75-.12-1.003-.36-.254-.238-.38-.547-.38-.922zm2.623 11.637h-2.48v-9.244h2.48v9.244zM45.898 28.11v2.272h1.58v1.81H45.9v4.614c0 .342.065.588.196.734.13.148.38.223.752.223.273 0 .515-.02.726-.06v1.872c-.484.146-.982.22-1.495.22-1.73 0-2.614-.872-2.648-2.622v-4.98h-1.35v-1.81h1.35v-2.274h2.468zM53.11 39.797c-1.356 0-2.46-.416-3.312-1.246-.852-.83-1.277-1.938-1.277-3.323v-.24c0-.928.18-1.758.54-2.49.358-.73.866-1.295 1.524-1.69.658-.397 1.408-.595 2.25-.595 1.266 0 2.26.398 2.987 1.195.727.8 1.09 1.93 1.09 3.393v1.008h-5.887c.08.605.32 1.088.722 1.453.402.366.91.548 1.525.548.95 0 1.694-.344 2.23-1.033l1.213 1.357c-.37.525-.87.934-1.503 1.227s-1.332.437-2.1.437zm-.282-7.596c-.49 0-.887.167-1.192.5s-.5.806-.585 1.425h3.436v-.2c-.01-.548-.16-.972-.444-1.272-.286-.3-.69-.452-1.214-.452zM57.928 34.936c0-1.44.323-2.588.97-3.443.646-.854 1.53-1.28 2.653-1.28.9 0 1.644.335 2.23 1.007v-4.715h2.48v13.123h-2.23l-.12-.982c-.616.768-1.408 1.152-2.376 1.152-1.088 0-1.96-.428-2.62-1.285s-.986-2.05-.986-3.577zm2.47.183c0 .866.15 1.532.452 1.993.302.463.74.693 1.316.693.763 0 1.3-.322 1.615-.967v-3.655c-.307-.645-.84-.967-1.597-.967-1.19 0-1.786.968-1.786 2.9z"/><text transform="translate(-26.334 -68.02)"><tspan x="0" y="0" fill="#FFF" font-family="'Roboto-Bold'" font-size="17.95">SUBSCRIBE TO OUR</tspan><tspan x="0" y="20.033" fill="#FFF" font-family="'Roboto-Bold'" font-size="17.95">EVENTS NEWSLETTER</tspan></text><text transform="translate(-64.927 -28.96)"><tspan x="0" y="0" font-family="'Roboto-Bold'" font-size="17.498">You’re</tspan><tspan x="-1.628" y="15.086" font-family="'Roboto-Bold'" font-size="17.498">Invited</tspan></text></svg>