<svg xmlns="http://www.w3.org/2000/svg" width="300" height="50" viewBox="0 0 300 50"><path fill="#18599B" d="M300 40c0 5.522-4.478 10-10 10H10C4.477 50 0 45.522 0 40V10C0 4.477 4.477 0 10 0h280c5.522 0 10 4.477 10 10v30z"/><path fill="#F7BF0F" d="M71.744 37.696A4.303 4.303 0 0 1 67.44 42H16.226a4.304 4.304 0 0 1-4.304-4.304v-25.25a4.304 4.304 0 0 1 4.305-4.303H67.44a4.304 4.304 0 0 1 4.303 4.303v25.25z"/><path fill="#FFF" d="M280.26 7.61h-8.75l10.183 17.64-10.184 17.64h8.75l10.183-17.64z"/><g fill="#FFF"><path d="M90.506 18.383c0-.497-.175-.878-.526-1.144-.35-.267-.982-.547-1.894-.842-.91-.295-1.633-.586-2.165-.872-1.448-.783-2.173-1.838-2.173-3.164 0-.69.194-1.305.583-1.845.39-.54.946-.962 1.674-1.266s1.544-.455 2.45-.455c.912 0 1.724.165 2.437.495.714.33 1.268.796 1.662 1.398.394.602.59 1.286.59 2.05h-2.628c0-.583-.184-1.038-.552-1.362-.368-.324-.885-.486-1.55-.486-.644 0-1.144.136-1.5.408-.356.27-.535.63-.535 1.074 0 .415.21.762.627 1.043.417.28 1.033.543 1.845.79 1.495.45 2.584 1.007 3.268 1.673.684.666 1.025 1.496 1.025 2.49 0 1.103-.417 1.97-1.253 2.598-.836.628-1.96.942-3.375.942-.98 0-1.875-.18-2.682-.54-.806-.358-1.42-.85-1.845-1.476-.424-.625-.635-1.35-.635-2.174h2.638c0 1.408.843 2.112 2.525 2.112.625 0 1.113-.127 1.464-.38.35-.256.526-.61.526-1.067zM104.582 8.97v8.405c0 1.396-.437 2.5-1.31 3.313-.874.812-2.067 1.218-3.58 1.218-1.49 0-2.674-.395-3.55-1.183-.877-.79-1.324-1.873-1.342-3.252v-8.5h2.63v8.423c0 .835.2 1.445.6 1.827.4.383.954.574 1.66.574 1.48 0 2.23-.777 2.253-2.332V8.97h2.64zM106.738 21.73V8.97h4.47c1.548 0 2.723.297 3.523.89.8.593 1.202 1.462 1.202 2.607 0 .625-.16 1.176-.482 1.652a2.78 2.78 0 0 1-1.34 1.046c.653.164 1.17.494 1.546.99s.565 1.104.565 1.823c0 1.226-.39 2.155-1.173 2.786-.783.63-1.9.952-3.348.964h-4.962zm2.63-7.414h1.945c1.327-.023 1.99-.552 1.99-1.586 0-.58-.168-.995-.504-1.25-.337-.253-.868-.38-1.592-.38h-1.84v3.216zm0 1.858v3.444h2.25c.62 0 1.104-.147 1.452-.442s.52-.703.52-1.223c0-1.17-.603-1.762-1.813-1.78h-2.41zM124.81 18.383c0-.497-.174-.878-.525-1.144-.35-.267-.982-.547-1.894-.842-.91-.295-1.632-.586-2.164-.872-1.45-.783-2.174-1.838-2.174-3.164 0-.69.194-1.305.583-1.845.39-.54.946-.962 1.674-1.266s1.543-.455 2.45-.455c.91 0 1.723.165 2.436.495.713.33 1.267.796 1.66 1.398.395.602.592 1.286.592 2.05h-2.63c0-.583-.183-1.038-.55-1.362-.37-.324-.886-.486-1.552-.486-.643 0-1.143.136-1.5.408-.355.27-.534.63-.534 1.074 0 .415.21.762.627 1.043.416.28 1.032.543 1.844.79 1.496.45 2.585 1.007 3.27 1.673.683.666 1.024 1.496 1.024 2.49 0 1.103-.417 1.97-1.253 2.598-.836.628-1.96.942-3.375.942-.98 0-1.875-.18-2.682-.54-.806-.358-1.42-.85-1.845-1.476-.424-.625-.635-1.35-.635-2.174h2.638c0 1.408.842 2.112 2.524 2.112.625 0 1.113-.127 1.464-.38.35-.256.527-.61.527-1.067zM139.246 17.48c-.1 1.374-.606 2.454-1.52 3.243-.916.79-2.12 1.183-3.617 1.183-1.637 0-2.924-.55-3.86-1.652-.94-1.1-1.408-2.613-1.408-4.536v-.78c0-1.227.216-2.308.648-3.243.432-.935 1.05-1.652 1.854-2.152.804-.5 1.737-.75 2.8-.75 1.473 0 2.66.395 3.56 1.183.898.79 1.42 1.896 1.56 3.322h-2.63c-.064-.824-.293-1.42-.688-1.792s-.995-.557-1.8-.557c-.877 0-1.533.313-1.968.94-.436.63-.66 1.604-.67 2.924v.964c0 1.38.208 2.387.626 3.024.417.637 1.077.955 1.976.955.812 0 1.418-.185 1.82-.556s.628-.944.687-1.722h2.63zM145.696 17.06H143.6v4.67h-2.628V8.97h4.742c1.508 0 2.67.336 3.488 1.008.818.672 1.227 1.622 1.227 2.85 0 .87-.19 1.596-.566 2.177-.376.58-.948 1.044-1.713 1.39l2.762 5.214v.122h-2.822l-2.394-4.672zm-2.094-2.13h2.12c.66 0 1.172-.168 1.535-.504s.543-.8.543-1.39c0-.6-.17-1.074-.513-1.42s-.866-.516-1.573-.516h-2.112v3.83zM155.224 21.73h-2.63V8.97h2.63v12.76zM157.66 21.73V8.97h4.47c1.55 0 2.723.297 3.523.89.8.593 1.2 1.462 1.2 2.607 0 .625-.16 1.176-.48 1.652-.32.475-.77.824-1.34 1.046.653.164 1.17.494 1.546.99s.563 1.104.563 1.823c0 1.226-.39 2.155-1.174 2.786-.784.63-1.9.952-3.35.964h-4.96zm2.63-7.414h1.945c1.326-.023 1.99-.552 1.99-1.586 0-.58-.168-.995-.504-1.25-.337-.253-.866-.38-1.59-.38h-1.842v3.216zm0 1.858v3.444h2.252c.62 0 1.104-.147 1.45-.442s.522-.703.522-1.223c0-1.17-.605-1.762-1.814-1.78h-2.41zM176.794 16.2h-5.05v3.42h5.925v2.11h-8.554V8.97h8.535v2.13h-5.905v3.042h5.05v2.06zM192.76 11.1h-3.907v10.63h-2.63V11.1h-3.856V8.97h10.395v2.13zM204.497 15.64c0 1.256-.223 2.357-.666 3.304s-1.08 1.677-1.905 2.19c-.826.516-1.775.772-2.844.772-1.058 0-2-.254-2.83-.763-.83-.508-1.472-1.234-1.93-2.178-.454-.944-.685-2.03-.69-3.256v-.632c0-1.256.227-2.362.678-3.317.453-.954 1.094-1.687 1.92-2.2s1.77-.766 2.836-.766c1.062 0 2.008.256 2.836.767.826.512 1.465 1.246 1.918 2.2.453.957.68 2.06.68 3.31v.57zm-2.664-.58c0-1.337-.24-2.353-.72-3.05s-1.16-1.042-2.05-1.042c-.883 0-1.562.343-2.043 1.03-.48.687-.72 1.693-.727 3.02v.622c0 1.303.238 2.314.72 3.033.478.718 1.167 1.078 2.067 1.078.883 0 1.56-.345 2.033-1.038s.713-1.702.72-3.028v-.623zM221.36 15.64c0 1.256-.223 2.357-.666 3.304-.445.947-1.08 1.677-1.906 2.19-.828.516-1.775.772-2.846.772-1.057 0-2-.254-2.83-.763s-1.473-1.234-1.928-2.178c-.457-.944-.688-2.03-.693-3.256v-.632c0-1.256.228-2.362.68-3.317.454-.954 1.093-1.687 1.92-2.2.827-.51 1.772-.766 2.835-.766 1.064 0 2.01.256 2.836.767s1.468 1.246 1.92 2.2c.454.957.68 2.06.68 3.31v.57zm-2.666-.58c0-1.337-.238-2.353-.72-3.05-.478-.694-1.16-1.042-2.05-1.042-.88 0-1.562.343-2.04 1.03-.48.687-.724 1.693-.73 3.02v.622c0 1.303.24 2.314.72 3.033.48.718 1.17 1.078 2.067 1.078.884 0 1.562-.345 2.034-1.038.475-.692.713-1.702.72-3.028v-.623zM232.93 8.97v8.405c0 1.396-.44 2.5-1.312 3.313s-2.066 1.218-3.58 1.218c-1.49 0-2.674-.395-3.55-1.183-.876-.79-1.323-1.873-1.34-3.252v-8.5h2.628v8.423c0 .835.2 1.445.6 1.827.4.383.955.574 1.662.574 1.48 0 2.23-.777 2.252-2.332V8.97h2.64zM239.808 17.06h-2.094v4.67h-2.63V8.97h4.74c1.51 0 2.67.336 3.49 1.008.817.672 1.228 1.622 1.228 2.85 0 .87-.19 1.596-.566 2.177-.377.58-.947 1.044-1.713 1.39l2.76 5.214v.122H242.2l-2.392-4.672zm-2.094-2.13h2.12c.66 0 1.173-.168 1.534-.504.363-.336.543-.8.543-1.39 0-.6-.17-1.074-.51-1.42s-.868-.516-1.575-.516h-2.11v3.83zM91.566 36.233h-5.048v3.418h5.925v2.114H83.89v-12.76h8.536v2.13H86.52v3.04h5.047v2.06zM98.7 38.6l2.894-9.597h2.927l-4.442 12.762h-2.744l-4.426-12.762h2.918L98.7 38.6zM113.4 36.233h-5.05v3.418h5.926v2.114h-8.554v-12.76h8.537v2.13h-5.908v3.04h5.048v2.06zM126.195 41.765h-2.63l-5.118-8.396v8.395h-2.63V29.003h2.63l5.127 8.414v-8.414h2.62v12.762zM137.843 31.133h-3.91v10.632h-2.628V31.133h-3.856v-2.13h10.394v2.13zM145.82 38.416c0-.497-.176-.878-.527-1.144s-.982-.547-1.894-.842c-.912-.295-1.634-.586-2.166-.87-1.45-.784-2.174-1.84-2.174-3.165 0-.69.194-1.305.583-1.846.39-.54.946-.964 1.674-1.267.728-.305 1.544-.457 2.45-.457.912 0 1.724.166 2.437.496s1.267.796 1.66 1.397c.395.602.592 1.285.592 2.05h-2.63c0-.584-.183-1.038-.55-1.362s-.886-.486-1.552-.486c-.643 0-1.143.135-1.5.407-.355.27-.534.63-.534 1.072 0 .416.21.763.627 1.043.417.28 1.033.544 1.845.79 1.496.45 2.585 1.007 3.27 1.673s1.024 1.496 1.024 2.49c0 1.103-.417 1.97-1.253 2.598-.836.63-1.96.942-3.375.942-.98 0-1.875-.18-2.682-.54-.806-.358-1.42-.85-1.845-1.476-.423-.626-.634-1.35-.634-2.174h2.638c0 1.408.842 2.112 2.524 2.112.625 0 1.113-.127 1.464-.38s.527-.608.527-1.064zM165.083 41.765h-2.63l-5.118-8.396v8.395h-2.63V29.003h2.63l5.127 8.414v-8.414h2.62v12.762zM175.058 36.233h-5.05v3.418h5.925v2.114h-8.553v-12.76h8.535v2.13h-5.906v3.04h5.048v2.06zM187.415 38.083l1.717-9.08h2.62l-2.83 12.762h-2.647l-2.076-8.537-2.08 8.537h-2.645l-2.83-12.762h2.62l1.728 9.062 2.104-9.062h2.225l2.093 9.08zM199.79 38.416c0-.497-.176-.878-.525-1.144-.352-.266-.982-.547-1.893-.842-.912-.295-1.635-.586-2.166-.87-1.45-.784-2.174-1.84-2.174-3.165 0-.69.195-1.305.584-1.846.39-.54.945-.964 1.674-1.267.727-.305 1.543-.457 2.45-.457.91 0 1.724.166 2.437.496s1.266.796 1.66 1.397c.395.602.592 1.285.592 2.05h-2.63c0-.584-.186-1.038-.553-1.362-.37-.324-.885-.486-1.55-.486-.644 0-1.144.135-1.5.407-.356.27-.534.63-.534 1.072 0 .416.207.763.625 1.043.418.28 1.033.544 1.846.79 1.496.45 2.586 1.007 3.27 1.673s1.025 1.496 1.025 2.49c0 1.103-.42 1.97-1.255 2.598-.836.63-1.96.942-3.375.942-.98 0-1.875-.18-2.682-.54s-1.42-.85-1.844-1.476c-.424-.626-.637-1.35-.637-2.174h2.64c0 1.408.84 2.112 2.522 2.112.626 0 1.112-.127 1.464-.38.35-.252.526-.608.526-1.064zM206.837 39.65h5.582v2.114h-8.212v-12.76h2.63V39.65zM221.604 36.233h-5.05v3.418h5.927v2.114h-8.554v-12.76h8.537v2.13h-5.908v3.04h5.05v2.06zM233.806 31.133h-3.91v10.632h-2.63V31.133h-3.854v-2.13h10.395v2.13zM245.05 31.133h-3.91v10.632h-2.63V31.133h-3.854v-2.13h10.395v2.13zM254.226 36.233h-5.05v3.418h5.927v2.114h-8.555v-12.76h8.537v2.13h-5.908v3.04h5.05v2.06zM261.368 37.093h-2.094v4.672h-2.63V29.003h4.74c1.51 0 2.67.336 3.49 1.008s1.228 1.622 1.228 2.85c0 .87-.19 1.597-.566 2.18-.377.58-.947 1.043-1.713 1.388l2.76 5.215v.123h-2.822l-2.392-4.673zm-2.094-2.13h2.12c.66 0 1.173-.168 1.534-.504.363-.337.543-.8.543-1.39 0-.603-.17-1.075-.51-1.42-.343-.345-.868-.518-1.575-.518h-2.11v3.83z"/></g><path fill="#F7BF0F" d="M9.836 13.62l.072-1.398c.232-4.49 3.826-5.976 5.694-6.135l.085-.007h52.165l.127.016c4.553.585 5.76 4.36 5.764 6.275l.002 1.33L41.83 27.17 9.837 13.62z"/><path fill="#1D5A99" d="M67.724 8.08c4.015.516 4.02 4.294 4.02 4.294L41.834 25 11.905 12.325c.204-3.934 3.866-4.246 3.866-4.246h51.952m.256-4H15.602l-.17.015c-2.868.244-7.24 2.583-7.52 8.024l-.145 2.796 2.58 1.092 29.926 12.674 1.558.66 1.56-.658L73.3 16.06l2.448-1.033-.004-2.658c-.004-2.932-2.008-7.55-7.51-8.257l-.254-.033z"/><text transform="translate(-26.334 -68.02)"><tspan x="0" y="0" fill="#FFF" font-family="'Roboto-Bold'" font-size="17.95">SUBSCRIBE TO OUR</tspan><tspan x="0" y="20.033" fill="#FFF" font-family="'Roboto-Bold'" font-size="17.95">EVENTS NEWSLETTER</tspan></text><text transform="translate(-64.927 -28.96)"><tspan x="0" y="0" font-family="'Roboto-Bold'" font-size="17.498">You’re</tspan><tspan x="-1.628" y="15.086" font-family="'Roboto-Bold'" font-size="17.498">Invited</tspan></text></svg>